<svg width="80" height="80" viewBox="0 0 80 80" fill="none" xmlns="http://www.w3.org/2000/svg">
<path d="M49.3805 42.3458C49.3805 48.8115 44.1202 54.0719 37.6544 54.0719C31.1886 54.0719 25.9283 48.8115 25.9283 42.3458C25.9283 35.8798 31.1886 30.6194 37.6544 30.6194C40.0415 30.6194 42.263 31.3381 44.1175 32.568L50.9179 25.7676C50.7642 25.6548 50.6093 25.5436 50.4533 25.434C45.8416 22.2114 41.2219 20.5826 36.703 20.5826C36.2891 20.5826 35.8763 20.5962 35.4641 20.6236C30.0116 20.9947 24.9319 23.422 21.1643 27.4581C17.3872 31.4978 15.3079 36.7844 15.3079 42.3458C15.3079 48.3126 17.6329 53.9239 21.8544 58.1455C26.0763 62.3673 31.6874 64.6922 37.6543 64.6922C43.6211 64.6922 49.2324 62.3672 53.4541 58.1455C57.6757 53.9237 60.0005 48.3126 60.0005 42.3458C60.0005 37.4342 58.0171 32.7189 54.4361 28.8781L47.4316 35.8825C48.6619 37.737 49.3805 39.9587 49.3805 42.3458Z" fill="#EFB614"/>
<path d="M35.9972 40.6885L40.6897 35.9959C39.7426 35.5412 38.7052 35.3057 37.6546 35.3069C33.7735 35.3069 30.616 38.4645 30.616 42.3458C30.616 46.2269 33.7735 49.3844 37.6546 49.3844C41.5357 49.3844 44.6932 46.2269 44.6932 42.3458C44.6943 41.2951 44.4588 40.2577 44.0042 39.3105L39.3119 44.0028L35.9972 40.6885Z" fill="#EFB614"/>
<path d="M60.6694 22.6452L57.7531 25.5614C62.213 30.2834 64.6883 36.1684 64.6883 42.3458C64.6883 49.5648 61.8758 56.353 56.7688 61.46C51.6616 66.5672 44.8733 69.3798 37.6544 69.3798C30.4355 69.3798 23.6472 66.5672 18.54 61.46C13.4328 56.353 10.6203 49.5647 10.6203 42.3458C10.6203 35.5914 13.1486 29.1678 17.7391 24.2581C22.3192 19.3512 28.5031 16.3989 35.1498 15.9466C41.1578 15.5495 47.2078 17.4475 53.1383 21.5919C53.5201 21.8596 53.8959 22.1358 54.2653 22.4203L57.355 19.3306L57.8498 10.5508C51.8695 6.73578 44.9194 4.69141 37.6545 4.69141C27.5967 4.69141 18.1408 8.60813 11.0289 15.72C3.91672 22.8319 0 32.2878 0 42.3456C0 52.4034 3.91672 61.8594 11.0287 68.9713C18.1408 76.0831 27.5966 80 37.6544 80C47.7122 80 57.1681 76.0833 64.28 68.9713C71.3919 61.8592 75.3086 52.4034 75.3086 42.3456C75.3086 35.0808 73.2641 28.1306 69.4492 22.1503L60.6694 22.6452Z" fill="#EFB614"/>
<path d="M62.1322 17.8678L71.71 17.328L80 9.03781L70.9624 0L62.6722 8.29L62.1322 17.8678Z" fill="#EFB614"/>
</svg>
