<svg width="16" height="16" viewBox="0 0 16 16" fill="none" xmlns="http://www.w3.org/2000/svg">
<path d="M16 0H0V16H16V0Z" fill="#101029"/>
<path d="M5.43062 7.02208C5.5175 7.10851 5.61522 7.15173 5.73467 7.15173C5.98443 7.15173 6.15816 6.96806 6.15816 6.73037C6.15816 6.61152 6.11473 6.51428 6.02785 6.42786C5.61523 5.97408 4.92026 5.62836 4.01899 5.62836C2.4336 5.62836 1.25 6.80599 1.25 8.40499C1.25 10.004 2.4336 11.1816 4.00812 11.1816C4.97455 11.1816 5.70209 10.7711 6.10386 10.3065C6.17987 10.2093 6.22331 10.1228 6.22331 10.0148C6.22331 9.74469 6.017 9.58264 5.79983 9.58264C5.68038 9.58264 5.58265 9.61504 5.48491 9.71228C5.18087 10.0796 4.70309 10.3713 4.02984 10.3713C2.90054 10.3713 2.12956 9.53942 2.12956 8.40499C2.12956 7.27057 2.90054 6.43866 4.02984 6.43866C4.64879 6.43866 5.08314 6.66554 5.43062 7.02208Z" fill="white"/>
<path d="M10.5661 7.02208C10.4792 7.10851 10.3815 7.15173 10.2621 7.15173C10.0123 7.15173 9.83859 6.96806 9.83859 6.73037C9.83859 6.61152 9.88202 6.51428 9.9689 6.42786C10.3815 5.97408 11.0765 5.62836 11.9778 5.62836C13.5631 5.62836 14.7467 6.80599 14.7467 8.40499C14.7467 10.004 13.5631 11.1816 11.9886 11.1816C11.0222 11.1816 10.2947 10.7711 9.89289 10.3065C9.81687 10.2093 9.77344 10.1228 9.77344 10.0148C9.77344 9.74469 9.97975 9.58264 10.1969 9.58264C10.3164 9.58264 10.4141 9.61504 10.5118 9.71228C10.8159 10.0796 11.2937 10.3713 11.9669 10.3713C13.0962 10.3713 13.8672 9.53942 13.8672 8.40499C13.8672 7.27057 13.0962 6.43866 11.9669 6.43866C11.348 6.43866 10.9136 6.66554 10.5661 7.02208Z" fill="white"/>
<path d="M8.68515 13C8.26007 12.9752 7.93663 12.9009 7.71485 12.777C7.49307 12.6613 7.38218 12.5126 7.38218 12.3309C7.38218 12.2813 7.38681 12.1904 7.39604 12.0582C7.41453 11.9343 7.44686 11.7402 7.49307 11.4758C7.54851 11.2032 7.62245 10.8356 7.71485 10.373C7.76106 10.1995 7.80725 9.9971 7.85347 9.7658C7.89968 9.52622 7.94587 9.29492 7.99208 9.07187C7.80725 9.05534 7.61782 9.04295 7.42376 9.0347C7.2297 9.02644 7.09572 9.0223 7.02178 9.0223C6.92938 9.0223 6.7769 9.02644 6.56436 9.0347C6.35181 9.04295 6.11156 9.05534 5.84356 9.07187C5.57557 9.08013 5.3076 9.09665 5.0396 9.12144C4.78087 9.13797 4.55446 9.15861 4.3604 9.18339C4.17557 9.19992 4.05545 9.22057 4 9.24535C4 9.03056 4.06931 8.84882 4.20792 8.70012C4.34653 8.55142 4.50824 8.39859 4.69307 8.24164C5.02574 7.96902 5.42772 7.63031 5.89901 7.22553C6.37953 6.81247 6.8878 6.36637 7.42376 5.88724C7.95973 5.4081 8.4726 4.92069 8.96238 4.42503C9.45215 3.92111 9.87723 3.4461 10.2376 3C10.3116 3.03304 10.3855 3.0826 10.4594 3.1487C10.5426 3.20652 10.5842 3.30153 10.5842 3.4337C10.5842 3.63197 10.4918 3.85916 10.3069 4.11524C10.2607 4.30525 10.1914 4.59851 10.099 4.99504C10.0066 5.39157 9.90032 5.87071 9.7802 6.43247C9.66007 6.98595 9.53069 7.59314 9.39208 8.25403C9.42904 8.25403 9.46601 8.25403 9.50297 8.25403C9.53993 8.25403 9.57228 8.25403 9.6 8.25403C9.95116 8.25403 10.2191 8.24577 10.404 8.22924C10.598 8.20446 10.7967 8.16729 11 8.11772C10.7782 8.39033 10.5195 8.61752 10.2238 8.79926C9.92805 8.97274 9.62772 9.06773 9.32277 9.08426C9.31354 9.08426 9.29968 9.08426 9.28119 9.08426C9.2627 9.08426 9.24423 9.08426 9.22574 9.08426C9.21651 9.10905 9.20265 9.17514 9.18416 9.28253C9.16567 9.38166 9.14257 9.51383 9.11485 9.67906C9.0779 9.90211 9.03168 10.1623 8.97624 10.4597C8.93003 10.7489 8.88383 11.0504 8.83762 11.3643C8.79141 11.6782 8.75446 11.9798 8.72673 12.2689C8.69901 12.558 8.68515 12.8017 8.68515 13ZM5.60792 8.22924C5.79275 8.21272 5.98681 8.20446 6.1901 8.20446C6.39339 8.19621 6.61517 8.19207 6.85545 8.19207C7.09572 8.19207 7.32673 8.19621 7.54851 8.20446C7.77953 8.20446 7.99671 8.2086 8.2 8.21685C8.32012 7.71294 8.43564 7.23378 8.54654 6.77943C8.66666 6.32508 8.79604 5.89549 8.93465 5.49071C8.65743 5.72201 8.36171 5.96159 8.04752 6.20942C7.74257 6.45725 7.43762 6.70508 7.13267 6.95291C6.82772 7.20074 6.53201 7.44032 6.24554 7.67162C6.13465 7.77076 6.02376 7.86575 5.91287 7.95663C5.81121 8.04751 5.70958 8.13837 5.60792 8.22924Z" fill="#16E01E"/>
</svg>
