<svg width="85" height="60" viewBox="0 0 85 60" fill="none" xmlns="http://www.w3.org/2000/svg">
<path d="M7.65178 42.1931C7.81078 42.3521 7.98965 42.4316 8.20827 42.4316C8.66539 42.4316 8.98339 42.0937 8.98339 41.6565C8.98339 41.4379 8.90389 41.259 8.74489 41.1C7.98965 40.2653 6.71767 39.6293 5.06806 39.6293C2.16635 39.6293 0 41.7956 0 44.7371C0 47.6785 2.16635 49.8449 5.04819 49.8449C6.81704 49.8449 8.14865 49.0897 8.88402 48.235C9.02314 48.0562 9.10264 47.8972 9.10264 47.6984C9.10264 47.2016 8.72502 46.9034 8.32752 46.9034C8.1089 46.9034 7.93003 46.9631 7.75116 47.1419C7.19466 47.8177 6.32017 48.3543 5.08794 48.3543C3.02096 48.3543 1.60986 46.8239 1.60986 44.7371C1.60986 42.6502 3.02096 41.1199 5.08794 41.1199C6.2208 41.1199 7.01579 41.5372 7.65178 42.1931Z" fill="white"/>
<path d="M15.8987 49.8449C18.8601 49.8449 21.0065 47.6785 21.0065 44.7371C21.0065 41.7956 18.8601 39.6293 15.8987 39.6293C12.9573 39.6293 10.8108 41.7956 10.8108 44.7371C10.8108 47.6785 12.9573 49.8449 15.8987 49.8449ZM12.4206 44.7371C12.4206 42.6502 13.8119 41.1199 15.8987 41.1199C17.9856 41.1199 19.3967 42.6502 19.3967 44.7371C19.3967 46.8239 17.9856 48.3543 15.8987 48.3543C13.8119 48.3543 12.4206 46.8239 12.4206 44.7371Z" fill="white"/>
<path d="M33.261 39.6293C31.83 39.6293 30.7568 40.2255 30.1407 41.0205C29.5246 40.1063 28.4513 39.6293 27.4576 39.6293C26.2452 39.6293 25.172 40.4044 24.8739 40.8615H24.7944V40.5236C24.7546 40.0864 24.4565 39.7684 23.9795 39.7684C23.4826 39.7684 23.1845 40.1261 23.1845 40.6031V48.871C23.1845 49.348 23.4826 49.7058 23.9795 49.7058C24.4764 49.7058 24.7944 49.348 24.7944 48.871V42.9682C24.7944 41.9149 25.7682 41.0801 26.9607 41.0801C28.1532 41.0801 29.1271 41.9347 29.1271 42.9682V48.871C29.1271 49.348 29.4252 49.7058 29.9221 49.7058C30.4189 49.7058 30.7369 49.348 30.7369 48.871V42.9682C30.7369 41.9347 31.7108 41.0801 32.9033 41.0801C34.1156 41.0801 35.0696 41.8354 35.0696 43.0676V48.871C35.0696 49.348 35.3678 49.7058 35.8646 49.7058C36.3615 49.7058 36.6596 49.348 36.6596 48.871V42.9881C36.6596 40.8019 35.0696 39.6293 33.261 39.6293Z" fill="white"/>
<path d="M49.351 39.6293C47.9201 39.6293 46.8468 40.2255 46.2307 41.0205C45.6146 40.1063 44.5414 39.6293 43.5476 39.6293C42.3353 39.6293 41.262 40.4044 40.9639 40.8615H40.8844V40.5236C40.8446 40.0864 40.5465 39.7684 40.0695 39.7684C39.5727 39.7684 39.2745 40.1261 39.2745 40.6031V48.871C39.2745 49.348 39.5727 49.7058 40.0695 49.7058C40.5664 49.7058 40.8844 49.348 40.8844 48.871V42.9682C40.8844 41.9149 41.8583 41.0801 43.0507 41.0801C44.2432 41.0801 45.2171 41.9347 45.2171 42.9682V48.871C45.2171 49.348 45.5152 49.7058 46.0121 49.7058C46.509 49.7058 46.827 49.348 46.827 48.871V42.9682C46.827 41.9347 47.8008 41.0801 48.9933 41.0801C50.2057 41.0801 51.1596 41.8354 51.1596 43.0676V48.871C51.1596 49.348 51.4578 49.7058 51.9546 49.7058C52.4515 49.7058 52.7496 49.348 52.7496 48.871V42.9881C52.7496 40.8019 51.1596 39.6293 49.351 39.6293Z" fill="white"/>
<path d="M60.0153 49.8449C62.9766 49.8449 65.1231 47.6785 65.1231 44.7371C65.1231 41.7956 62.9766 39.6293 60.0153 39.6293C57.0738 39.6293 54.9273 41.7956 54.9273 44.7371C54.9273 47.6785 57.0738 49.8449 60.0153 49.8449ZM56.5372 44.7371C56.5372 42.6502 57.9284 41.1199 60.0153 41.1199C62.1021 41.1199 63.5132 42.6502 63.5132 44.7371C63.5132 46.8239 62.1021 48.3543 60.0153 48.3543C57.9284 48.3543 56.5372 46.8239 56.5372 44.7371Z" fill="white"/>
<path d="M72.3294 39.6293C70.64 39.6293 69.5469 40.4243 69.0103 41.1398H68.9109V40.6031C68.9109 40.1261 68.5929 39.7684 68.096 39.7684C67.5992 39.7684 67.301 40.1261 67.301 40.6031V48.871C67.301 49.348 67.5992 49.7058 68.096 49.7058C68.5929 49.7058 68.9109 49.348 68.9109 48.871V43.3856C68.9109 42.2527 69.7854 41.0801 71.8325 41.0801C73.3827 41.0801 74.4361 41.7559 74.4361 43.5247V48.871C74.4361 49.348 74.7342 49.7058 75.2311 49.7058C75.7279 49.7058 76.0459 49.348 76.0459 48.871V43.5247C76.0459 40.7621 74.3765 39.6293 72.3294 39.6293Z" fill="white"/>
<path d="M7.65178 15.6935C7.81078 15.8525 7.98965 15.932 8.20828 15.932C8.6654 15.932 8.98339 15.5941 8.98339 15.1568C8.98339 14.9382 8.90389 14.7594 8.74489 14.6004C7.98965 13.7656 6.71767 13.1296 5.06806 13.1296C2.16635 13.1296 0 15.296 0 18.2374C0 21.1789 2.16635 23.3452 5.04819 23.3452C6.81704 23.3452 8.14865 22.59 8.88402 21.7354C9.02314 21.5565 9.10264 21.3975 9.10264 21.1988C9.10264 20.7019 8.72502 20.4038 8.32753 20.4038C8.1089 20.4038 7.93003 20.4634 7.75116 20.6423C7.19466 21.318 6.32017 21.8546 5.08794 21.8546C3.02096 21.8546 1.60986 20.3243 1.60986 18.2374C1.60986 16.1506 3.02096 14.6202 5.08794 14.6202C6.2208 14.6202 7.01579 15.0376 7.65178 15.6935Z" fill="white"/>
<path d="M16.7931 13.388C16.4552 13.2489 16.0975 13.1296 15.6205 13.1296C14.3286 13.1296 13.2554 14.0637 12.9374 14.7991H12.8579V14.1035C12.8579 13.6265 12.5399 13.2687 12.043 13.2687C11.5461 13.2687 11.248 13.6265 11.248 14.1035V22.3714C11.248 22.8484 11.5461 23.2061 12.043 23.2061C12.5399 23.2061 12.8579 22.8484 12.8579 22.3714V17.7406C12.8579 15.8922 13.8715 14.6401 15.4615 14.6401C15.8788 14.6401 16.1571 14.7594 16.3956 14.8587C16.4552 14.8786 16.5745 14.8985 16.6341 14.8985C17.0713 14.8985 17.3893 14.5606 17.3893 14.1432C17.3893 13.7656 17.1508 13.5072 16.7931 13.388Z" fill="white"/>
<path d="M27.0969 13.2687C26.6 13.2687 26.3019 13.6265 26.3019 14.1035V19.4895C26.3019 20.5032 25.4871 21.7553 23.3803 21.7553C21.8301 21.7553 20.7767 21.0795 20.7767 19.3107V14.1035C20.7767 13.6265 20.4587 13.2687 19.9619 13.2687C19.465 13.2687 19.1669 13.6265 19.1669 14.1035V19.3107C19.1669 22.0534 20.896 23.2061 23.0027 23.2061C24.8113 23.2061 25.8448 22.3515 26.2025 21.6161H26.3019V22.2919C26.3019 24.5974 25.0697 25.7103 23.1816 25.7103C22.2475 25.7103 21.5717 25.452 21.0152 25.1936C20.896 25.134 20.7569 25.1141 20.6575 25.1141C20.2004 25.1141 19.8625 25.452 19.8625 25.8892C19.8625 26.1277 19.9619 26.3662 20.2401 26.565C20.8761 27.0221 22.0885 27.2407 23.122 27.2407C26.0435 27.2407 27.9118 25.3128 27.9118 22.3913V14.1035C27.9118 13.6265 27.5938 13.2687 27.0969 13.2687Z" fill="white"/>
<path d="M30.5405 17.5617V25.3923C30.5405 25.8693 30.8386 26.2271 31.3355 26.2271C31.8324 26.2271 32.1504 25.8693 32.1504 25.3923V21.636H32.2497C32.7466 22.59 33.9789 23.3452 35.6682 23.3452C38.4507 23.3452 40.5176 21.2584 40.5176 18.3368C40.5176 15.3755 38.4507 13.1296 35.3303 13.1296C32.687 13.1296 30.5405 14.7395 30.5405 17.5617ZM32.1504 18.7343V17.6412C32.1504 15.5941 33.4621 14.6202 35.3502 14.6202C37.6954 14.6202 38.8879 16.1506 38.8879 18.2573C38.8879 20.4435 37.6954 21.8745 35.5291 21.8745C33.5416 21.8745 32.1504 20.7218 32.1504 18.7343Z" fill="white"/>
<path d="M43.4385 11.0825V13.2687H42.405C41.928 13.2687 41.5702 13.547 41.5702 14.0041C41.5702 14.4811 41.928 14.7594 42.405 14.7594H43.4385V19.6287C43.4385 22.2323 44.8694 23.2061 46.7973 23.2061H47.3339C47.8109 23.2061 48.1289 22.9279 48.1289 22.4509C48.1289 21.954 47.8109 21.6758 47.3339 21.6758H46.7973C45.7638 21.6758 45.0483 21.159 45.0483 19.6287V14.7594H47.2743C47.7513 14.7594 48.0892 14.4811 48.0892 14.0041C48.0892 13.547 47.7513 13.2687 47.2743 13.2687H45.0483V11.0825C45.0483 10.5857 44.7303 10.2279 44.2334 10.2279C43.7366 10.2279 43.4385 10.5857 43.4385 11.0825Z" fill="white"/>
<path d="M54.6972 23.3452C57.6585 23.3452 59.805 21.1789 59.805 18.2374C59.805 15.296 57.6585 13.1296 54.6972 13.1296C51.7557 13.1296 49.6093 15.296 49.6093 18.2374C49.6093 21.1789 51.7557 23.3452 54.6972 23.3452ZM51.2191 18.2374C51.2191 16.1506 52.6103 14.6202 54.6972 14.6202C56.784 14.6202 58.1952 16.1506 58.1952 18.2374C58.1952 20.3243 56.784 21.8546 54.6972 21.8546C52.6103 21.8546 51.2191 20.3243 51.2191 18.2374Z" fill="white"/>
<path d="M78.1333 31.3141C76.9433 31.2365 76.0379 31.0037 75.4171 30.6156C74.7962 30.2535 74.4858 29.7878 74.4858 29.2187C74.4858 29.0635 74.4987 28.779 74.5246 28.3651C74.5763 27.977 74.6669 27.3691 74.7962 26.5413C74.9514 25.6876 75.1584 24.5365 75.4171 23.0878C75.5464 22.5446 75.6757 21.9108 75.8051 21.1865C75.9344 20.4363 76.0638 19.712 76.1931 19.0135C75.6757 18.9618 75.1454 18.923 74.6022 18.8971C74.0589 18.8712 73.6838 18.8583 73.4769 18.8583C73.2182 18.8583 72.7914 18.8712 72.1964 18.8971C71.6014 18.923 70.9288 18.9618 70.1786 19.0135C69.4284 19.0394 68.6782 19.0911 67.9281 19.1687C67.2037 19.2205 66.5699 19.2851 66.0267 19.3627C65.5093 19.4145 65.173 19.4792 65.0178 19.5568C65.0178 18.8842 65.2118 18.3151 65.5999 17.8494C65.9879 17.3838 66.4406 16.9052 66.958 16.4137C67.8893 15.56 69.0145 14.4994 70.3338 13.2319C71.679 11.9384 73.1018 10.5415 74.6022 9.04112C76.1026 7.54074 77.5383 6.01448 78.9093 4.46236C80.2804 2.88437 81.4703 1.39691 82.4792 0C82.6862 0.103475 82.8931 0.258688 83.1001 0.465639C83.3329 0.646719 83.4493 0.944208 83.4493 1.35811C83.4493 1.97896 83.1906 2.69035 82.6732 3.49228C82.5439 4.08726 82.3499 5.0056 82.0912 6.2473C81.8325 7.489 81.535 8.98938 81.1987 10.7485C80.8624 12.4817 80.5003 14.383 80.1122 16.4525C80.2157 16.4525 80.3192 16.4525 80.4227 16.4525C80.5261 16.4525 80.6167 16.4525 80.6943 16.4525C81.6773 16.4525 82.4275 16.4266 82.9449 16.3749C83.4881 16.2973 84.0443 16.1809 84.6134 16.0257C83.9925 16.8793 83.2682 17.5907 82.4404 18.1598C81.6126 18.7031 80.7719 19.0006 79.9182 19.0523C79.8923 19.0523 79.8535 19.0523 79.8018 19.0523C79.7501 19.0523 79.6983 19.0523 79.6466 19.0523C79.6207 19.1299 79.5819 19.3369 79.5302 19.6732C79.4784 19.9836 79.4138 20.3975 79.3362 20.9149C79.2327 21.6133 79.1033 22.4282 78.9481 23.3595C78.8188 24.2649 78.6894 25.2091 78.5601 26.1921C78.4308 27.1751 78.3273 28.1193 78.2497 29.0247C78.1721 29.9301 78.1333 30.6933 78.1333 31.3141ZM69.519 16.3749C70.0364 16.3232 70.5796 16.2973 71.1487 16.2973C71.7178 16.2714 72.3387 16.2585 73.0113 16.2585C73.6838 16.2585 74.3306 16.2714 74.9514 16.2973C75.5981 16.2973 76.206 16.3102 76.7752 16.3361C77.1115 14.7581 77.4348 13.2577 77.7452 11.8349C78.0815 10.4122 78.4437 9.06699 78.8317 7.79942C78.0557 8.52375 77.2279 9.27394 76.3483 10.05C75.4947 10.8261 74.641 11.6021 73.7873 12.3782C72.9337 13.1542 72.1059 13.9044 71.3039 14.6288C70.9935 14.9392 70.6831 15.2367 70.3726 15.5212C70.0881 15.8058 69.8035 16.0904 69.519 16.3749Z" fill="#16E01E"/>
<path fill-rule="evenodd" clip-rule="evenodd" d="M37.3593 60C32.9364 59.9931 28.5618 58.5786 23.1339 55.8239L23.4977 55.0272C28.8731 57.7553 33.1166 59.1092 37.3606 59.1158C41.6048 59.1224 45.897 57.7817 51.3698 55.0266L51.7312 55.8245C46.2055 58.6062 41.7821 60.0069 37.3593 60Z" fill="#16E01E"/>
</svg>
