<svg width="95" height="60" viewBox="0 0 95 60" fill="none" xmlns="http://www.w3.org/2000/svg">
<path d="M10.5749 16.995C10.748 17.1628 10.9427 17.2468 11.1807 17.2468C11.6784 17.2468 12.0246 16.8901 12.0246 16.4285C12.0246 16.1977 11.938 16.0089 11.7649 15.841C10.9427 14.9598 9.55803 14.2884 7.76222 14.2884C4.60334 14.2884 2.245 16.5754 2.245 19.6806C2.245 22.7859 4.60334 25.0728 7.74059 25.0728C9.66621 25.0728 11.1158 24.2755 11.9164 23.3733C12.0678 23.1845 12.1544 23.0167 12.1544 22.8068C12.1544 22.2823 11.7433 21.9676 11.3106 21.9676C11.0726 21.9676 10.8778 22.0305 10.6831 22.2194C10.0773 22.9327 9.1253 23.4992 7.78386 23.4992C5.5337 23.4992 3.99753 21.8837 3.99753 19.6806C3.99753 17.4776 5.5337 15.862 7.78386 15.862C9.01712 15.862 9.88257 16.3026 10.5749 16.995Z" fill="white"/>
<path d="M20.5264 14.5611C20.1586 14.4143 19.7691 14.2884 19.2499 14.2884C17.8435 14.2884 16.6752 15.2745 16.329 16.0508H16.2424V15.3165C16.2424 14.8129 15.8962 14.4353 15.3553 14.4353C14.8144 14.4353 14.4899 14.8129 14.4899 15.3165V24.0447C14.4899 24.5483 14.8144 24.926 15.3553 24.926C15.8962 24.926 16.2424 24.5483 16.2424 24.0447V19.1561C16.2424 17.2048 17.3459 15.883 19.0768 15.883C19.5311 15.883 19.834 16.0089 20.0937 16.1138C20.1586 16.1347 20.2884 16.1557 20.3533 16.1557C20.8293 16.1557 21.1755 15.799 21.1755 15.3584C21.1755 14.9598 20.9158 14.687 20.5264 14.5611Z" fill="white"/>
<path d="M31.7434 14.4353C31.2025 14.4353 30.878 14.8129 30.878 15.3165V21.0024C30.878 22.0725 29.9909 23.3943 27.6974 23.3943C26.0098 23.3943 24.8631 22.6809 24.8631 20.8136V15.3165C24.8631 14.8129 24.5169 14.4353 23.976 14.4353C23.4351 14.4353 23.1106 14.8129 23.1106 15.3165V20.8136C23.1106 23.709 24.9929 24.926 27.2864 24.926C29.2552 24.926 30.3803 24.0238 30.7698 23.2474H30.878V23.9608C30.878 26.3947 29.5365 27.5696 27.4811 27.5696C26.4642 27.5696 25.7285 27.2969 25.1227 27.0241C24.9929 26.9612 24.8415 26.9402 24.7333 26.9402C24.2356 26.9402 23.8678 27.2969 23.8678 27.7585C23.8678 28.0102 23.976 28.262 24.2789 28.4718C24.9713 28.9544 26.2911 29.1852 27.4162 29.1852C30.5967 29.1852 32.6305 27.15 32.6305 24.0657V15.3165C32.6305 14.8129 32.2843 14.4353 31.7434 14.4353Z" fill="white"/>
<path d="M35.4922 18.9672V27.2339C35.4922 27.7375 35.8168 28.1151 36.3577 28.1151C36.8986 28.1151 37.2447 27.7375 37.2447 27.2339V23.2684H37.3529C37.8938 24.2755 39.2353 25.0728 41.0744 25.0728C44.1034 25.0728 46.3536 22.8698 46.3536 19.7855C46.3536 16.6593 44.1034 14.2884 40.7065 14.2884C37.8289 14.2884 35.4922 15.9879 35.4922 18.9672ZM37.2447 20.2051V19.0512C37.2447 16.8901 38.6727 15.862 40.7282 15.862C43.2812 15.862 44.5794 17.4776 44.5794 19.7016C44.5794 22.0095 43.2812 23.5202 40.9229 23.5202C38.7593 23.5202 37.2447 22.3033 37.2447 20.2051Z" fill="white"/>
<path d="M49.5333 12.1273V14.4353H48.4082C47.8889 14.4353 47.4995 14.729 47.4995 15.2116C47.4995 15.7151 47.8889 16.0089 48.4082 16.0089H49.5333V21.1493C49.5333 23.8979 51.0911 24.926 53.1898 24.926H53.7739C54.2932 24.926 54.6394 24.6322 54.6394 24.1287C54.6394 23.6041 54.2932 23.3104 53.7739 23.3104H53.1898C52.0647 23.3104 51.2858 22.7649 51.2858 21.1493V16.0089H53.709C54.2283 16.0089 54.5961 15.7151 54.5961 15.2116C54.5961 14.729 54.2283 14.4353 53.709 14.4353H51.2858V12.1273C51.2858 11.6028 50.9396 11.2251 50.3987 11.2251C49.8578 11.2251 49.5333 11.6028 49.5333 12.1273Z" fill="white"/>
<path d="M61.7898 25.0728C65.0136 25.0728 67.3503 22.7859 67.3503 19.6806C67.3503 16.5754 65.0136 14.2884 61.7898 14.2884C58.5877 14.2884 56.251 16.5754 56.251 19.6806C56.251 22.7859 58.5877 25.0728 61.7898 25.0728ZM58.0035 19.6806C58.0035 17.4776 59.518 15.862 61.7898 15.862C64.0616 15.862 65.5978 17.4776 65.5978 19.6806C65.5978 21.8837 64.0616 23.4992 61.7898 23.4992C59.518 23.4992 58.0035 21.8837 58.0035 19.6806Z" fill="white"/>
<path d="M8.2669 39.6187C8.43868 39.7934 8.63194 39.8808 8.86813 39.8808C9.362 39.8808 9.70556 39.5095 9.70556 39.0291C9.70556 38.7888 9.61967 38.5923 9.44789 38.4176C8.63194 37.5003 7.2577 36.8015 5.47548 36.8015C2.3405 36.8015 0 39.1819 0 42.414C0 45.6462 2.3405 48.0266 5.45401 48.0266C7.36506 48.0266 8.80372 47.1967 9.5982 46.2576C9.7485 46.0611 9.83439 45.8864 9.83439 45.668C9.83439 45.122 9.42642 44.7945 8.99697 44.7945C8.76077 44.7945 8.56752 44.86 8.37426 45.0565C7.77304 45.799 6.82825 46.3887 5.49695 46.3887C3.26382 46.3887 1.73927 44.7071 1.73927 42.414C1.73927 40.121 3.26382 38.4394 5.49695 38.4394C6.72088 38.4394 7.57978 38.898 8.2669 39.6187Z" fill="white"/>
<path d="M17.1768 48.0266C20.3762 48.0266 22.6952 45.6462 22.6952 42.414C22.6952 39.1819 20.3762 36.8015 17.1768 36.8015C13.9989 36.8015 11.6799 39.1819 11.6799 42.414C11.6799 45.6462 13.9989 48.0266 17.1768 48.0266ZM13.4191 42.414C13.4191 40.121 14.9222 38.4394 17.1768 38.4394C19.4314 38.4394 20.956 40.121 20.956 42.414C20.956 44.7071 19.4314 46.3887 17.1768 46.3887C14.9222 46.3887 13.4191 44.7071 13.4191 42.414Z" fill="white"/>
<path d="M35.9349 36.8015C34.3888 36.8015 33.2293 37.4567 32.5637 38.3302C31.898 37.3256 30.7385 36.8015 29.6649 36.8015C28.3551 36.8015 27.1956 37.6532 26.8735 38.1555H26.7876V37.7843C26.7446 37.3038 26.4226 36.9544 25.9072 36.9544C25.3704 36.9544 25.0483 37.3475 25.0483 37.8716V46.9565C25.0483 47.4806 25.3704 47.8737 25.9072 47.8737C26.444 47.8737 26.7876 47.4806 26.7876 46.9565V40.4704C26.7876 39.313 27.8397 38.3957 29.1281 38.3957C30.4164 38.3957 31.4686 39.3348 31.4686 40.4704V46.9565C31.4686 47.4806 31.7907 47.8737 32.3275 47.8737C32.8643 47.8737 33.2079 47.4806 33.2079 46.9565V40.4704C33.2079 39.3348 34.26 38.3957 35.5484 38.3957C36.8582 38.3957 37.8889 39.2256 37.8889 40.5796V46.9565C37.8889 47.4806 38.2109 47.8737 38.7478 47.8737C39.2846 47.8737 39.6067 47.4806 39.6067 46.9565V40.4922C39.6067 38.09 37.8889 36.8015 35.9349 36.8015Z" fill="white"/>
<path d="M53.3183 36.8015C51.7723 36.8015 50.6128 37.4567 49.9472 38.3302C49.2815 37.3256 48.122 36.8015 47.0484 36.8015C45.7385 36.8015 44.579 37.6532 44.257 38.1555H44.1711V37.7843C44.1281 37.3038 43.806 36.9544 43.2907 36.9544C42.7539 36.9544 42.4318 37.3475 42.4318 37.8716V46.9565C42.4318 47.4806 42.7539 47.8737 43.2907 47.8737C43.8275 47.8737 44.1711 47.4806 44.1711 46.9565V40.4704C44.1711 39.313 45.2232 38.3957 46.5116 38.3957C47.7999 38.3957 48.8521 39.3348 48.8521 40.4704V46.9565C48.8521 47.4806 49.1741 47.8737 49.711 47.8737C50.2478 47.8737 50.5913 47.4806 50.5913 46.9565V40.4704C50.5913 39.3348 51.6435 38.3957 52.9318 38.3957C54.2416 38.3957 55.2723 39.2256 55.2723 40.5796V46.9565C55.2723 47.4806 55.5944 47.8737 56.1312 47.8737C56.668 47.8737 56.9901 47.4806 56.9901 46.9565V40.4922C56.9901 38.09 55.2723 36.8015 53.3183 36.8015Z" fill="white"/>
<path d="M64.8398 48.0266C68.0392 48.0266 70.3582 45.6462 70.3582 42.414C70.3582 39.1819 68.0392 36.8015 64.8398 36.8015C61.6619 36.8015 59.3429 39.1819 59.3429 42.414C59.3429 45.6462 61.6619 48.0266 64.8398 48.0266ZM61.0821 42.414C61.0821 40.121 62.5852 38.4394 64.8398 38.4394C67.0944 38.4394 68.619 40.121 68.619 42.414C68.619 44.7071 67.0944 46.3887 64.8398 46.3887C62.5852 46.3887 61.0821 44.7071 61.0821 42.414Z" fill="white"/>
<path d="M78.1439 36.8015C76.3187 36.8015 75.1377 37.6751 74.558 38.4612H74.4506V37.8716C74.4506 37.3475 74.107 36.9544 73.5702 36.9544C73.0334 36.9544 72.7113 37.3475 72.7113 37.8716V46.9565C72.7113 47.4806 73.0334 47.8737 73.5702 47.8737C74.107 47.8737 74.4506 47.4806 74.4506 46.9565V40.929C74.4506 39.6842 75.3954 38.3957 77.6071 38.3957C79.2819 38.3957 80.42 39.1382 80.42 41.0819V46.9565C80.42 47.4806 80.742 47.8737 81.2788 47.8737C81.8157 47.8737 82.1592 47.4806 82.1592 46.9565V41.0819C82.1592 38.0463 80.3555 36.8015 78.1439 36.8015Z" fill="white"/>
<path d="M86.7171 39.6624C86.7171 38.8325 87.4472 38.3302 88.6711 38.3302C89.6588 38.3302 90.4318 38.6796 91.1189 39.3348C91.2693 39.4658 91.4625 39.5313 91.6558 39.5313C92.0852 39.5313 92.4288 39.1819 92.4288 38.7015C92.4288 38.4394 92.3214 38.2865 92.1711 38.1337C91.4625 37.3475 90.1097 36.8015 88.6926 36.8015C86.6956 36.8015 85.0637 37.8934 85.0637 39.7934C85.0637 43.4405 91.0975 42.4359 91.0975 44.9036C91.0975 45.9082 90.1956 46.4979 88.7999 46.4979C87.4257 46.4979 86.5453 45.9301 85.9656 45.1875C85.8367 45.0347 85.622 44.8818 85.2999 44.8818C84.849 44.8818 84.484 45.2312 84.484 45.7117C84.484 45.9519 84.5913 46.1484 84.7846 46.3887C85.4287 47.1749 86.7171 48.0266 88.7355 48.0266C91.1619 48.0266 92.7938 46.6944 92.7938 44.7508C92.7938 40.9727 86.7171 42.0209 86.7171 39.6624Z" fill="white"/>
<path d="M87.1139 33.6752C85.796 33.5917 84.7933 33.3413 84.1057 32.924C83.4181 32.5346 83.0744 32.0338 83.0744 31.4218C83.0744 31.2549 83.0887 30.9489 83.1173 30.5038C83.1746 30.0865 83.2749 29.4327 83.4181 28.5425C83.59 27.6245 83.8192 26.3865 84.1057 24.8287C84.249 24.2445 84.3922 23.5629 84.5355 22.7839C84.6787 21.9772 84.822 21.1982 84.9652 20.4471C84.3922 20.3915 83.8049 20.3498 83.2033 20.3219C82.6016 20.2941 82.1862 20.2802 81.957 20.2802C81.6705 20.2802 81.1978 20.2941 80.5389 20.3219C79.88 20.3498 79.1351 20.3915 78.3043 20.4471C77.4734 20.4749 76.6426 20.5306 75.8118 20.614C75.0096 20.6697 74.3077 20.7392 73.7061 20.8227C73.1331 20.8783 72.7606 20.9479 72.5887 21.0313C72.5887 20.308 72.8036 19.696 73.2334 19.1953C73.6631 18.6945 74.1645 18.1799 74.7374 17.6513C75.7688 16.7333 77.015 15.5927 78.4762 14.2295C79.9659 12.8386 81.5416 11.3363 83.2033 9.72282C84.8649 8.1093 86.455 6.46797 87.9734 4.79882C89.4918 3.10184 90.8096 1.50224 91.927 0C92.1562 0.111277 92.3853 0.278193 92.6145 0.500748C92.8724 0.695481 93.0013 1.0154 93.0013 1.46051C93.0013 2.12817 92.7148 2.8932 92.1418 3.75559C91.9986 4.39544 91.7837 5.38302 91.4972 6.71834C91.2107 8.05367 90.8813 9.66718 90.5088 11.5589C90.1364 13.4228 89.7353 15.4675 89.3056 17.693C89.4202 17.693 89.5347 17.693 89.6493 17.693C89.7639 17.693 89.8642 17.693 89.9502 17.693C91.0388 17.693 91.8697 17.6652 92.4426 17.6096C93.0443 17.5261 93.6602 17.4009 94.2905 17.234C93.6029 18.152 92.8008 18.9171 91.884 19.5291C90.9672 20.1133 90.0361 20.4332 89.0907 20.4889C89.062 20.4889 89.0191 20.4889 88.9618 20.4889C88.9045 20.4889 88.8472 20.4889 88.7899 20.4889C88.7612 20.5723 88.7182 20.7949 88.6609 21.1565C88.6037 21.4904 88.532 21.9355 88.4461 22.4918C88.3315 23.243 88.1882 24.1193 88.0163 25.1208C87.8731 26.0944 87.7299 27.1098 87.5866 28.167C87.4434 29.2241 87.3288 30.2395 87.2428 31.2132C87.1569 32.1868 87.1139 33.0075 87.1139 33.6752ZM77.5737 17.6096C78.1467 17.5539 78.7483 17.5261 79.3786 17.5261C80.0089 17.4983 80.6965 17.4844 81.4413 17.4844C82.1862 17.4844 82.9025 17.4983 83.59 17.5261C84.3063 17.5261 84.9795 17.54 85.6098 17.5678C85.9822 15.8709 86.3404 14.2574 86.6842 12.7273C87.0566 11.1972 87.4577 9.75064 87.8874 8.38749C87.0279 9.16643 86.1112 9.97319 85.1371 10.8078C84.1917 11.6423 83.2463 12.4769 82.3008 13.3115C81.3554 14.1461 80.4386 14.9528 79.5505 15.7318C79.2067 16.0656 78.8629 16.3855 78.5191 16.6915C78.204 16.9975 77.8888 17.3036 77.5737 17.6096Z" fill="#16E01E"/>
<path fill-rule="evenodd" clip-rule="evenodd" d="M41.8188 59.9999C36.4948 59.9916 31.2289 58.2889 24.6952 54.9729L25.1331 54.0139C31.6037 57.2978 36.7117 58.9276 41.8203 58.9355C46.9292 58.9435 52.0959 57.3296 58.6837 54.0132L59.1187 54.9737C52.4672 58.3221 47.1426 60.0081 41.8188 59.9999Z" fill="#16E01E"/>
</svg>
