<svg width="80" height="80" viewBox="0 0 80 80" fill="none" xmlns="http://www.w3.org/2000/svg">
<path fill-rule="evenodd" clip-rule="evenodd" d="M28.2188 54.7031C39.5 49.625 51.2188 45.8281 64.5312 45.0625L41.1094 8.5C34.8438 20.2812 27.0938 30.2812 17.7656 38.4062L28.2188 54.7031Z" fill="#EFB614"/>
<path fill-rule="evenodd" clip-rule="evenodd" d="M64.5313 45.0626C65.5313 46.6407 67.6407 47.0938 69.2188 46.0938C70.7969 45.0938 71.25 42.9688 70.25 41.4063L46.8282 4.82819C45.8282 3.25007 43.7188 2.79694 42.1407 3.79694C40.5625 4.79694 40.1094 6.92194 41.1094 8.48444L64.5313 45.0626ZM19.3438 64.0782L27.2813 59.0001C28.7188 58.0782 29.1407 56.1563 28.2188 54.7032L17.7813 38.3907C16.8594 36.9532 14.9219 36.5313 13.4844 37.4532L5.5469 42.5313C4.1094 43.4532 3.68753 45.3907 4.6094 46.8282L6.01565 49.0001L13.6563 60.9532L15.0469 63.1407C15.9688 64.5782 17.8907 65.0001 19.3438 64.0782Z" fill="#EFB614"/>
<path fill-rule="evenodd" clip-rule="evenodd" d="M10 63.2969L13.6563 60.9531L6.01563 49L2.35939 51.3438C1.17189 52.0938 0.828135 53.6875 1.57814 54.8594L6.48438 62.5156C7.23438 63.7031 8.81251 64.0469 10 63.2969ZM29.5 78.3594L35.8594 74.2812C36.3281 73.9844 36.4688 73.3438 36.1563 72.8906L27.2656 59L19.3281 64.0781L19.2031 64.1562L28.0938 78.0469C28.4063 78.5156 29.0313 78.6562 29.5 78.3594Z" fill="#EEEEDC"/>
<path d="M47.8125 4.20313C47.1563 3.17188 46.1406 2.46876 44.9375 2.20313C43.75 1.93751 42.5156 2.15626 41.5 2.81251C40.4844 3.46876 39.7656 4.48438 39.5156 5.68751C39.3125 6.64063 39.4063 7.60938 39.7813 8.48438C33.7969 19.6094 26.4219 29.1094 17.8594 36.75C17.3438 36.3281 16.7344 36.0313 16.0625 35.8906C14.9375 35.6406 13.7969 35.8438 12.8438 36.4688L4.90625 41.5469C3.95313 42.1563 3.28125 43.1094 3.03125 44.2344C2.78125 45.3594 2.98438 46.5 3.60938 47.4531L4.375 48.6406L1.71875 50.375C0.890626 50.9063 0.312501 51.7344 0.093751 52.7188C-0.124999 53.6875 0.062501 54.6875 0.593751 55.5156L5.5 63.1719C6.20313 64.2813 7.40625 64.8906 8.64063 64.8906C9.32813 64.8906 10.0156 64.7031 10.6406 64.2969L13.3125 62.5938L14.0781 63.7969C14.8906 65.0625 16.2812 65.7656 17.6875 65.7656C18.0469 65.7656 18.4062 65.7188 18.75 65.625L27.125 78.7031C27.4375 79.1875 27.9219 79.5312 28.5 79.6562C28.6562 79.6875 28.8125 79.7031 28.9688 79.7031C29.375 79.7031 29.7813 79.5781 30.1406 79.3594L36.5 75.2812C36.9844 74.9688 37.3281 74.4844 37.4531 73.9063C37.5781 73.3281 37.4688 72.75 37.1563 72.2656L28.8125 59.2188C29.75 58.1563 30.0938 56.6875 29.75 55.3125C42.0781 49.875 53.0156 47 64 46.2813C64.875 47.2656 66.1406 47.8125 67.4062 47.8125C68.25 47.8125 69.0938 47.5781 69.8594 47.0938C71.9844 45.7344 72.5938 42.9063 71.2344 40.7813L47.8125 4.20313ZM41.1875 10.7969L62.4688 44.0313C51.625 44.9063 40.7969 47.8438 28.6406 53.2188L19.2812 38.6094C27.8125 31.0469 35.1719 21.6875 41.1875 10.7969ZM9.35938 62.3125C8.71875 62.7188 7.85938 62.5313 7.45313 61.8906L2.54688 54.2344C2.34375 53.9219 2.28125 53.5625 2.35938 53.2031C2.4375 52.8438 2.65625 52.5313 2.96875 52.3438L5.64063 50.6406L12.0313 60.6094L9.35938 62.3125ZM16.0312 62.5156L14.6563 60.3594C14.6563 60.3438 14.6406 60.3438 14.6406 60.3281L7 48.375C6.98438 48.3438 6.96875 48.3281 6.95313 48.2969L5.60938 46.1875C5.32813 45.75 5.23438 45.2344 5.35938 44.7344C5.46875 44.2188 5.76563 43.7969 6.20313 43.5156L14.1406 38.4375C14.4531 38.2344 14.8125 38.125 15.1719 38.125C15.3125 38.125 15.4531 38.1406 15.5938 38.1719C16.1094 38.2813 16.5312 38.5781 16.8125 39.0156L27.25 55.3281C27.8281 56.2188 27.5625 57.4219 26.6719 58L26.2031 58.2969L18.7344 63.0781C17.8125 63.6719 16.6094 63.4063 16.0312 62.5156ZM29 77.2813L20.8281 64.5156L26.9219 60.6094L35.0938 73.375L29 77.2813ZM68.5938 45.1094C67.5625 45.7656 66.1875 45.4688 65.5156 44.4375L42.0938 7.85938C41.7812 7.35938 41.6719 6.76563 41.7969 6.18751C41.9219 5.60938 42.2656 5.10938 42.7656 4.79688C43.2656 4.48438 43.8594 4.37501 44.4375 4.50001C45.0156 4.62501 45.5156 4.96876 45.8281 5.46876L69.25 42.0469C69.9219 43.0781 69.625 44.4531 68.5938 45.1094Z" fill="black"/>
<path d="M31.75 45.4219C31.9688 45.7657 32.3594 45.9688 32.7344 45.9688C32.9531 45.9688 33.1719 45.9063 33.3594 45.7813C33.9063 45.4376 34.0625 44.7032 33.7188 44.1563L29.2188 37.1251C28.875 36.5782 28.1406 36.4219 27.5938 36.7657C27.0469 37.1094 26.8906 37.8438 27.2344 38.3907L31.75 45.4219ZM47.5313 38.0001C47.75 38.3438 48.1406 38.5469 48.5156 38.5469C48.7344 38.5469 48.9531 38.4844 49.1406 38.3594C49.6875 38.0157 49.8438 37.2813 49.5 36.7344L41.8281 24.7501C41.4844 24.2032 40.75 24.0469 40.2031 24.3907C39.6563 24.7344 39.5 25.4688 39.8438 26.0157L47.5313 38.0001ZM38.9844 40.8594C39.2031 41.2032 39.5938 41.4063 39.9688 41.4063C40.1875 41.4063 40.4063 41.3438 40.5938 41.2188C41.1406 40.8751 41.2969 40.1407 40.9531 39.5938L36.4531 32.5626C36.1094 32.0157 35.375 31.8594 34.8281 32.2032C34.2813 32.5469 34.125 33.2813 34.4688 33.8282L38.9844 40.8594ZM64.9063 19.7344C65.125 19.7344 65.3438 19.6719 65.5313 19.5469L72.5313 15.0626C73.0781 14.7188 73.2344 13.9844 72.8906 13.4376C72.5469 12.8907 71.8125 12.7344 71.2656 13.0782L64.2656 17.5626C63.7188 17.9063 63.5625 18.6407 63.9063 19.1876C64.1406 19.5469 64.5156 19.7344 64.9063 19.7344ZM58.2656 10.6251C58.375 10.6563 58.4688 10.6719 58.5781 10.6719C59.0938 10.6719 59.5625 10.3282 59.7031 9.81256L61.9219 1.81256C62.0938 1.18756 61.7344 0.546932 61.1094 0.375057C60.4844 0.203182 59.8438 0.562557 59.6719 1.18756L57.4531 9.18756C57.2656 9.79693 57.6406 10.4532 58.2656 10.6251ZM78.7969 26.2032L70.5 26.4376C69.8594 26.4532 69.3438 27.0001 69.3594 27.6407C69.375 28.2813 69.8906 28.7813 70.5313 28.7813H70.5625L78.8594 28.5469C79.5 28.5313 80.0156 27.9844 80 27.3438C79.9844 26.6876 79.4531 26.1876 78.7969 26.2032Z" fill="#101029"/>
</svg>
