<svg width="72" height="80" viewBox="0 0 72 80" fill="none" xmlns="http://www.w3.org/2000/svg">
<path d="M70.743 11.1965C70.6728 10.6917 70.4566 10.2185 70.121 9.83496C69.7854 9.45143 69.345 9.17432 68.8541 9.03769L36.7007 0.0958119C36.2423 -0.0317745 35.7578 -0.0317745 35.2994 0.0958119L3.146 9.03769C2.655 9.17424 2.21461 9.45133 1.879 9.83487C1.5434 10.2184 1.32721 10.6917 1.25703 11.1965C1.07054 12.5375 -3.18393 44.2223 7.72849 59.9846C18.628 75.7281 34.7071 79.7626 35.3862 79.9268C35.7896 80.0244 36.2105 80.0244 36.6139 79.9268C37.2933 79.7626 53.3724 75.7281 64.2716 59.9846C75.184 44.2227 70.9295 12.5378 70.743 11.1965ZM56.7348 29.6944L34.803 51.6263C34.2927 52.1366 33.6234 52.3921 32.9545 52.3921C32.2855 52.3921 31.6162 52.1369 31.1059 51.6263L17.5457 38.066C17.3028 37.8233 17.1101 37.5351 16.9787 37.218C16.8472 36.9008 16.7796 36.5608 16.7796 36.2175C16.7796 35.8741 16.8472 35.5342 16.9787 35.217C17.1101 34.8998 17.3028 34.6116 17.5457 34.3689L20.2381 31.6765C20.7284 31.1862 21.3933 30.9108 22.0867 30.9108C22.78 30.9108 23.4449 31.1862 23.9352 31.6765L32.9545 40.6957L50.3453 23.3045C50.588 23.0617 50.8762 22.869 51.1933 22.7376C51.5105 22.6061 51.8505 22.5385 52.1938 22.5385C52.5372 22.5385 52.8772 22.6061 53.1943 22.7376C53.5115 22.869 53.7997 23.0617 54.0424 23.3045L56.7348 25.997C56.9776 26.2398 57.1702 26.528 57.3016 26.8452C57.433 27.1624 57.5006 27.5024 57.5006 27.8457C57.5006 28.189 57.433 28.529 57.3016 28.8462C57.1702 29.1634 56.9776 29.4516 56.7348 29.6944Z" fill="#EFB614"/>
</svg>
