<svg width="312" height="400" viewBox="0 0 312 400" fill="none" xmlns="http://www.w3.org/2000/svg">
<path d="M133.137 82.1536C143.5 81.4775 148.512 84.8584 152.962 90.2116C157.411 95.6211 178.363 133.262 178.363 133.262C178.363 133.262 221.842 134.389 230.122 136.981C238.401 139.573 243.075 144.25 244.765 147.124C246.455 149.998 246.849 153.492 245.723 158.169C244.596 162.789 238.288 161.831 234.909 158.169C231.53 154.506 227.7 151.745 224.208 149.773C220.66 147.744 185.572 150.223 175.997 150.336C166.422 150.449 164.677 146.448 158.819 138.503C152.962 130.614 140.29 112.075 140.29 112.075L133.137 82.1536Z" fill="#EB9481"/>
<path d="M130.014 81.9866C139.307 81.254 145.502 81.8175 150.852 86.9453C156.147 92.0731 174.338 124.643 174.338 124.643C174.338 124.643 171.804 134.955 156.428 137.265L133.111 105.991L130.014 81.9866Z" fill="#16E01E"/>
<path d="M82.2679 368.3C86.1541 370.554 90.6034 370.498 95.3907 368.638L98.5447 342.887L81.9863 339.111L82.2679 368.3Z" fill="#B16668"/>
<path d="M131.126 354.271C134.28 361.653 138.899 359.23 145.882 354.778L146.333 329.365L128.254 328.125L131.126 354.271Z" fill="#B16668"/>
<path d="M110.417 392.134C110.812 392.528 110.643 395.74 110.136 396.473C109.573 397.261 106.757 399.741 101.35 399.966C96.2246 400.192 91.6626 399.346 88.6775 397.318C85.6925 395.289 84.2845 393.148 84.1155 390.218C83.8902 387.288 84.3408 384.47 82.9891 382.16C81.75 380.019 80.1167 377.934 79.7225 376.807C78.8214 374.327 79.4972 370.496 79.4972 370.496L110.417 392.134Z" fill="#263238"/>
<path d="M97.3224 367.558C97.3787 368.685 97.5476 369.756 97.8292 370.827C98.5051 373.137 99.5752 375.334 100.814 377.363C101.434 378.434 102.11 379.504 102.842 380.462C104.362 382.378 106.277 383.956 107.854 385.759C109.431 387.619 110.783 389.816 110.839 392.183C110.952 396.24 106.503 397.48 103.123 397.987C99.5189 398.494 95.689 398.212 92.1971 397.085C88.311 395.902 85.6076 392.746 85.0444 388.858C84.8754 387.731 84.988 386.548 84.8754 385.421C84.6501 382.885 83.411 380.462 81.9467 378.265C81.1582 377.025 80.2007 375.785 79.6939 374.377C78.6801 371.841 79.6375 369.08 80.3697 366.6C81.0456 364.459 81.4961 361.867 82.2846 362.092C82.2846 362.543 82.2846 363.501 82.2846 363.501C82.5099 363.952 83.0731 364.29 83.1858 364.854C83.3547 365.417 83.5237 365.981 83.749 366.544C84.1432 367.333 84.7064 368.122 85.4949 368.573C85.6076 367.032 85.7014 365.511 85.7765 364.008C85.8329 363.501 85.8328 362.994 86.1708 362.656C86.5087 362.318 87.0156 362.205 87.4662 362.149C90.3385 361.698 93.2672 361.247 96.1396 361.698C96.5339 361.754 97.0407 361.867 97.266 362.205C97.4913 362.543 97.435 362.881 97.435 363.276C97.3223 364.741 97.266 366.15 97.3224 367.558Z" fill="#16E01E"/>
<path d="M101.271 378.269C99.8062 377.086 96.427 376.973 94.6247 377.142C92.3155 377.311 90.4006 378.044 89.3305 378.776C88.8236 379.114 88.2041 379.058 87.7535 378.607C87.3029 378.1 87.3593 377.311 87.9225 376.917C89.1052 376.128 91.1328 375.001 93.8925 374.888C98.4545 374.719 99.7499 375.564 99.7499 375.564C99.7499 375.564 101.777 376.917 101.271 378.269Z" fill="#F5F5F5"/>
<path d="M104.566 382.5C102.708 381.316 99.0467 381.373 97.1881 381.542C94.879 381.711 93.133 382.556 92.0066 383.289C91.556 383.627 90.8802 383.57 90.4859 383.119C90.0354 382.612 90.0917 381.823 90.6549 381.429C91.7813 380.64 93.9778 379.344 96.7376 379.231C101.3 379.062 102.426 380.02 102.426 380.02C102.426 380.02 104.341 380.809 104.566 382.5Z" fill="#F5F5F5"/>
<path d="M92.2416 370.499C95.3956 370.274 96.691 370.669 97.93 371.176C98.7185 371.626 99.2254 372.922 98.6622 373.204C97.7048 372.641 95.9025 372.359 93.6496 372.359C92.1853 372.415 90.2704 372.979 88.7497 373.599C88.3555 373.768 87.8486 373.993 87.4543 374.162C86.8911 374.444 86.2153 374.219 85.99 373.655C85.7647 373.204 85.9336 372.641 86.3842 372.415C87.5106 371.739 89.7072 370.725 92.2416 370.499Z" fill="#F5F5F5"/>
<path d="M173.264 371.159C173.658 372.061 173.489 373.695 172.982 374.766C172.419 375.78 166.843 378.71 159.465 377.977C152.087 377.301 147.075 374.146 144.315 372.174C141.555 370.258 138.626 369.807 134.965 369.469C131.305 369.187 126.574 367.215 125.785 365.468C125.053 363.721 126.067 360.791 126.067 360.791L173.264 371.159Z" fill="#263238"/>
<path d="M144.074 348.453C144.712 348.265 145.35 348.059 145.989 347.833C146.383 347.72 146.777 347.608 147.115 347.72C147.566 347.946 147.735 348.509 147.847 348.96C148.073 349.974 148.129 351.27 148.58 352.228C148.917 353.074 149.875 353.862 150.551 354.482C152.353 356.06 154.381 357.3 156.408 358.483C158.774 359.835 161.083 360.906 163.561 362.089C166.095 363.329 169.418 364.118 171.39 365.527C174.262 367.612 174.487 372.514 171.108 374.374C168.179 375.951 160.632 377.529 152.804 375.106C148.58 373.754 143.961 369.02 138.329 368.401C134.725 368.006 128.022 366.823 125.77 364.005C124.981 362.766 126.22 358.99 127.234 355.722C128.36 352.116 128.924 346.368 130.106 346.706C130.332 348.622 131.176 348.791 131.796 349.805C132.303 350.707 132.584 351.721 132.979 352.736C133.373 353.693 133.88 354.651 134.781 355.215C135.626 355.835 136.921 355.891 137.653 355.159C138.78 354.088 138.216 352.172 139.005 350.876C139.568 350.031 140.582 349.636 141.596 349.298C142.422 349.035 143.248 348.754 144.074 348.453Z" fill="#16E01E"/>
<path d="M153.145 356.399C153.145 356.399 152.694 355.047 150.554 354.596C148.92 354.202 146.048 355.329 144.19 356.737C143.457 357.357 143.514 358.484 144.302 358.991C144.809 359.273 145.429 359.217 145.879 358.822C147.062 357.864 149.765 356.061 153.145 356.399Z" fill="#F5F5F5"/>
<path d="M158.097 359.381C158.097 359.381 157.139 357.69 155.056 357.69C155.056 357.69 150.775 357.69 148.072 360.057C147.396 360.677 147.396 361.748 148.184 362.198C148.635 362.48 149.254 362.424 149.649 362.086C150.888 361.071 153.31 358.874 158.097 359.381Z" fill="#F5F5F5"/>
<path d="M163.612 362.093C163.612 362.093 162.486 360.571 160.402 360.571C160.402 360.571 156.459 360.571 153.756 362.994C153.024 363.558 153.08 364.628 153.869 365.136C154.319 365.417 154.882 365.361 155.333 364.967C156.516 363.952 158.825 361.642 163.612 362.093Z" fill="#F5F5F5"/>
<path d="M88.4593 169.497C86.7133 197.728 83.841 268.39 83.841 268.39C83.4467 271.884 82.1513 282.252 81.5318 294.931C80.5744 313.3 82.0387 353.815 82.0387 353.815C82.0387 353.815 89.5857 358.154 97.696 355.055C97.696 355.055 108.115 295.325 111.495 277.293C114.423 261.459 120.112 223.254 120.112 223.254L122.815 270.25C122.815 270.25 121.914 283.21 123.435 295.494C124.448 303.834 129.236 340.179 129.236 340.179C129.236 340.179 137.515 342.715 146.357 340.01C146.357 340.01 148.836 279.096 149.23 271.377C149.624 262.586 151.483 163.806 151.483 163.806L88.4593 169.497Z" fill="#455A64"/>
<path d="M120.055 223.252L124.955 200.205C124.955 200.205 136.557 199.529 143.146 193.274C143.146 193.274 141.795 199.585 127.151 202.966L122.251 226.238L121.801 247.933L120.055 223.252Z" fill="#263238"/>
<path d="M93.5904 85.4319C88.0709 86.4462 87.6767 89.2073 86.4376 94.6732C85.8744 97.4343 84.5227 103.295 85.0296 108.197L87.902 140.992L86.8319 178.295C95.7306 187.987 132.396 191.086 151.883 176.83C151.883 176.83 151.657 115.241 150.756 105.38C149.236 88.1367 141.407 81.9946 129.917 81.9946L110.261 83.6851L93.5904 85.4319Z" fill="#16E01E"/>
<path d="M93.5904 85.4319C88.0709 86.4462 87.6767 89.2073 86.4376 94.6732C85.8744 97.4343 84.5227 103.295 85.0296 108.197L87.902 140.992L86.8319 178.295C95.7306 187.987 132.396 191.086 151.883 176.83C151.883 176.83 151.657 115.241 150.756 105.38C149.236 88.1367 141.407 81.9946 129.917 81.9946L110.261 83.6851L93.5904 85.4319Z" fill="#16E01E"/>
<path d="M114.397 41.8166C114.397 51.4523 122.225 59.2284 131.856 59.1721C141.487 59.1721 149.26 51.3396 149.26 41.7039C149.203 32.0682 141.375 24.292 131.744 24.292C122.113 24.3483 114.34 32.1809 114.397 41.8166Z" fill="#263238"/>
<path d="M109.113 45.1986L105.396 35.2248C105.396 35.2248 102.298 34.7177 99.9889 37.1407C97.6234 39.5074 98.9751 46.9454 101.904 54.2708C101.904 54.2708 104.776 67.5129 105.903 69.7105C107.029 71.9081 109.395 72.4716 109.395 72.4716L109.113 45.1986Z" fill="#263238"/>
<path d="M108.743 54.8342C107.673 55.5103 106.152 53.4254 104.801 52.0731C103.505 50.7207 99.1685 48.8048 97.0283 53.3691C94.8881 57.9897 98.9995 64.0191 102.379 65.0897C108.18 66.8929 109.081 63.1738 109.081 63.1738L109.588 84.192C109.588 84.192 113.418 93.546 123.781 94.8984C134.088 96.2508 131.947 87.742 128.568 83.5722L128.512 77.1484C128.512 77.1484 133.806 77.9373 136.397 77.5428C140.677 76.8667 143.324 73.4857 144.62 68.8087C146.703 61.3707 147.436 55.3413 145.633 40.6905C143.662 24.631 124.964 24.5183 114.882 30.8858C104.801 37.3096 108.743 54.8342 108.743 54.8342Z" fill="#EB9481"/>
<path d="M108.818 56.2457C107.129 55.7949 105.89 53.0901 104.763 52.0758C102.905 50.3853 105.27 35.2274 105.27 35.2274C105.27 35.2274 103.468 31.4521 107.016 27.564C109.494 24.7465 113.718 24.4084 120.927 23.2814C124.476 22.7179 128.643 22.4362 132.135 21.76C136.472 20.9711 139.175 20.1259 142.611 18.4354C143.23 18.0973 143.906 17.7592 144.638 17.9283C145.145 18.041 145.652 18.4354 145.878 18.9426C146.103 19.4497 146.159 20.0695 146.159 20.633C146.159 21.2341 146.065 21.8164 145.878 22.3798C145.765 22.7179 145.089 23.7322 145.202 24.014C145.596 24.7465 148.356 23.5068 148.919 23.3378C149.032 23.3378 149.201 23.2814 149.313 23.3378C149.426 23.3941 149.482 23.5068 149.538 23.6195C150.44 25.31 150.102 27.733 149.201 29.4235C147.173 33.3116 143.287 36.1854 139.288 37.8759C135.064 39.6227 130.389 40.2425 125.827 39.7354C123.856 39.51 121.885 39.0592 120.026 38.383C120.139 38.4393 118.9 40.2425 118.787 40.3552C118.261 40.9938 117.642 41.5385 116.929 41.9893C116.253 42.4401 115.464 42.8346 114.676 43.06C113.887 43.2854 113.099 43.1727 112.648 44.0743C112.31 44.6377 112.31 45.2576 112.31 45.9338C112.235 47.7745 112.179 49.6152 112.141 51.456C112.085 52.4139 112.085 53.3718 111.747 54.2734C111.409 55.175 110.79 55.9639 109.888 56.2457C109.513 56.3583 109.156 56.3583 108.818 56.2457Z" fill="#263238"/>
<path d="M128.455 77.1479C128.455 77.1479 118.88 75.2884 115.501 73.4852C113.305 72.3018 111.446 70.2733 110.883 68.9209C110.883 68.9209 111.502 71.7947 113.53 74.3304C116.008 77.4296 128.455 79.6836 128.455 79.6836V77.1479Z" fill="#9A4A4D"/>
<path d="M126.619 52.7488C126.675 53.8194 125.774 54.721 124.76 54.721C123.69 54.721 122.789 53.8194 122.789 52.7488C122.789 51.6218 123.634 50.7202 124.704 50.7202C125.774 50.7202 126.619 51.6218 126.619 52.7488Z" fill="#263238"/>
<path d="M124.332 46.8342L120.051 49.5953C119.319 48.3557 119.657 46.7215 120.84 45.989C122.023 45.2001 123.599 45.5946 124.332 46.8342Z" fill="#263238"/>
<path d="M123.356 64.4165L130.115 67.2903C129.214 69.1498 127.242 70.1078 125.159 69.2625C123.244 68.4736 122.455 66.276 123.356 64.4165Z" fill="#9A4A4D"/>
<path d="M125.068 69.264C125.631 69.4894 126.195 69.6021 126.702 69.5458C126.476 68.0244 125.125 66.7847 123.491 66.7847C123.341 66.7847 123.172 66.8035 122.984 66.841C123.266 67.9117 123.942 68.8132 125.068 69.264Z" fill="#F28F8F"/>
<path d="M143.577 48.8102L139.578 46.3309C140.198 45.2039 141.606 44.8095 142.732 45.4856C143.859 46.1618 144.253 47.6269 143.577 48.8102Z" fill="#263238"/>
<path d="M142.041 52.7488C142.041 53.8194 141.196 54.721 140.126 54.721C139.056 54.721 138.211 53.8194 138.211 52.7488C138.211 51.6218 139.056 50.7202 140.126 50.7202C141.196 50.7202 142.041 51.6218 142.041 52.7488Z" fill="#263238"/>
<path d="M131.965 51.7456L132.246 64.0861L138.723 62.1138L131.965 51.7456Z" fill="#9A4A4D"/>
<path d="M77.6263 141.722C83.3148 132.706 91.5376 116.027 91.5376 116.027C96.2123 104.926 95.9307 92.3041 93.3962 85.4858C93.3962 85.4858 90.4675 85.9366 88.8342 86.3874C80.893 88.6414 78.6401 89.8247 74.8103 96.3049C71.7126 101.489 61.8001 127.466 57.9703 135.524L39.3843 118.563C34.9913 114.224 34.3154 108.42 31.7247 104.645C29.1339 100.869 25.9236 99.6295 22.8823 96.3612C19.8409 93.093 18.8271 90.7263 17.3628 93.0366C15.8984 95.3469 19.1087 100.08 19.6156 101.151C20.1788 102.278 23.7271 105.208 18.6019 104.363C13.533 103.518 4.46527 96.4176 2.21243 95.0652C-0.0404138 93.7128 -0.434664 96.643 0.410152 98.7279C1.31129 100.756 0.297511 106.053 1.76186 109.491C3.33885 113.097 4.23999 114.731 8.68935 117.605C12.8008 120.31 21.9811 122.789 26.1489 126.621C30.373 130.396 40.2291 142.906 46.1992 150.456C53.8588 160.036 60.5611 164.431 66.7564 157.387C71.3184 152.203 75.4861 145.047 77.6263 141.722Z" fill="#EB9481"/>
<path d="M95.2522 85.311C88.9442 84.9166 78.6375 85.4801 72.9491 98.0459C67.2043 110.612 59.1504 131.123 59.1504 131.123C59.1504 131.123 68.725 143.801 79.1444 142.674L94.8016 112.922C94.8016 112.922 99.3636 97.3134 95.2522 85.311Z" fill="#16E01E"/>
<path d="M291.652 346.599C292.209 346.265 292.58 345.523 292.58 344.52V254.431C292.58 253.392 292.209 252.278 291.652 251.276L297.217 248.047C297.811 249.049 298.145 250.2 298.145 251.202V341.291C298.145 342.33 297.811 343.036 297.217 343.37L291.652 346.599Z" fill="#263238"/>
<path d="M291.771 251.283C291.178 250.28 290.361 249.39 289.471 248.87L187.592 190.036C184.067 187.957 178.279 187.957 174.755 190.036L172.529 191.298C170.488 192.485 169.449 194.304 169.449 196.235V293.747C169.449 291.817 170.488 289.998 172.529 288.81L174.755 287.511C178.279 285.47 184.067 285.47 187.592 287.511L289.471 346.383C290.361 346.902 291.178 346.939 291.771 346.605C292.328 346.271 292.699 345.529 292.699 344.527V254.438C292.699 253.398 292.328 252.285 291.771 251.283Z" fill="#37474F"/>
<path d="M169.612 197.9C168.796 195.45 169.797 192.815 172.432 191.293L174.658 190.031C178.182 187.952 183.97 187.952 187.495 190.031L289.374 248.865C290.339 249.459 291.118 250.276 291.674 251.278L297.239 248.048C296.72 247.12 296.015 246.304 294.976 245.636L190.277 185.205C185.046 182.161 177.106 182.161 171.875 185.205L169.649 186.467C166.458 188.323 164.381 191.33 163.898 194.708C163.824 195.203 163.787 195.71 163.787 196.23C163.787 199.125 164.937 201.946 167.089 204.21L171.133 200.387C170.391 199.608 169.909 198.754 169.612 197.9Z" fill="#455A64"/>
<path d="M285.156 265.985V253.661L182.832 194.567C180.791 193.454 178.157 193.602 176.376 194.567L175.263 195.235C174.336 195.755 173.779 196.572 173.742 197.685V203.921V219.029L285.156 265.985Z" fill="#16E01E"/>
<path opacity="0.2" d="M285.156 265.985V253.661L182.832 194.567C180.791 193.454 178.157 193.602 176.376 194.567L175.263 195.235C174.336 195.755 173.779 196.572 173.742 197.685V203.921V219.029L285.156 265.985Z" fill="black"/>
<path d="M184.255 192.154C181.621 190.669 177.688 190.669 175.054 192.154L173.941 192.822C172.345 193.713 171.307 195.235 171.047 196.905C171.022 197.177 171.01 197.437 171.01 197.684V201.025L173.792 203.92V197.684C173.792 196.719 174.312 195.791 175.313 195.235L176.427 194.566C178.207 193.564 181.101 193.564 182.882 194.566L285.207 253.661L287.989 252.064L184.255 192.154Z" fill="#16E01E"/>
<path opacity="0.3" d="M184.255 192.154C181.621 190.669 177.688 190.669 175.054 192.154L173.941 192.822C172.345 193.713 171.307 195.235 171.047 196.905C171.022 197.177 171.01 197.437 171.01 197.684V201.025L173.792 203.92V197.684C173.792 196.719 174.312 195.791 175.313 195.235L176.427 194.566C178.207 193.564 181.101 193.564 182.882 194.566L285.207 253.661L287.989 252.064L184.255 192.154Z" fill="black"/>
<path d="M285.211 253.659L287.994 252.063V267.43L285.211 265.76V253.659Z" fill="#16E01E"/>
<path opacity="0.4" d="M285.211 253.659L287.994 252.063V267.43L285.211 265.76V253.659Z" fill="black"/>
<path d="M288.781 335.32V265.944L186.754 206.961C184.602 205.736 181.968 205.736 179.853 206.961L177.256 208.446V274.593L285.591 337.176C287.001 337.993 288.781 336.954 288.781 335.32Z" fill="#263238"/>
<path d="M279.086 332.706L280.83 331.704C281.386 331.37 281.831 330.59 281.831 329.959V258.69C281.831 258.059 281.386 257.279 280.83 256.945L188.448 203.567C187.892 203.27 187.001 203.27 186.445 203.567L184.701 204.607C184.144 204.904 183.699 205.683 183.699 206.314V277.621C183.699 278.252 184.144 279.031 184.701 279.328L277.082 332.706C277.639 333.04 278.529 333.04 279.086 332.706Z" fill="#16E01E"/>
<path opacity="0.7" d="M279.086 332.706L280.83 331.704C281.386 331.37 281.831 330.59 281.831 329.959V258.69C281.831 258.059 281.386 257.279 280.83 256.945L188.448 203.567C187.892 203.27 187.001 203.27 186.445 203.567L184.701 204.607C184.144 204.904 183.699 205.683 183.699 206.314V277.621C183.699 278.252 184.144 279.031 184.701 279.328L277.082 332.706C277.639 333.04 278.529 333.04 279.086 332.706Z" fill="white"/>
<path d="M277.082 259.102L184.701 205.762C184.144 205.427 183.699 205.687 183.699 206.318V277.625C183.699 278.256 184.144 279.035 184.701 279.332L277.082 332.71C277.639 333.044 278.084 332.784 278.084 332.153V260.847C278.084 260.216 277.639 259.436 277.082 259.102Z" fill="#16E01E"/>
<path d="M277.082 259.102L184.701 205.762C184.144 205.427 183.699 205.687 183.699 206.318V277.625C183.699 278.256 184.144 279.035 184.701 279.332L277.082 332.71C277.639 333.044 278.084 332.784 278.084 332.153V260.847C278.084 260.216 277.639 259.436 277.082 259.102Z" fill="#16E01E"/>
<path opacity="0.5" d="M277.082 259.102L184.701 205.762C184.144 205.427 183.699 205.687 183.699 206.318V277.625C183.699 278.256 184.144 279.035 184.701 279.332L277.082 332.71C277.639 333.044 278.084 332.784 278.084 332.153V260.847C278.084 260.216 277.639 259.436 277.082 259.102Z" fill="white"/>
<path d="M184.676 205.762C192.281 210.402 199.887 214.93 207.567 219.459L230.57 232.933L253.758 246.148L265.37 252.681L277.057 259.102L265.63 252.198L254.166 245.405L231.163 231.931L208.012 218.716C200.258 214.336 192.504 209.993 184.676 205.762Z" fill="white"/>
<path d="M277.726 259.843L281.474 257.69C281.659 258.025 281.77 258.359 281.77 258.693V329.962C281.77 330.593 281.325 331.373 280.769 331.707L279.025 332.709C278.543 333.006 277.764 333.043 277.207 332.82C277.689 332.969 278.023 332.672 278.023 332.115V260.846C278.023 260.512 277.912 260.177 277.726 259.843Z" fill="#16E01E"/>
<path d="M277.988 268.974L281.735 266.821V285.455L277.988 287.608V268.974Z" fill="#16E01E"/>
<path opacity="0.2" d="M277.988 268.974L281.735 266.821V285.455L277.988 287.608V268.974Z" fill="black"/>
<path opacity="0.2" d="M183.504 214.453L277.889 268.982V287.616L183.504 233.087V214.453Z" fill="black"/>
<path d="M274.819 314.562L275.116 313.968L254.117 301.941L253.783 302.498L274.819 314.562Z" fill="white"/>
<path d="M266.471 315.818H267.102V309.619H266.471V315.818Z" fill="white"/>
<path d="M261.592 313.108H262.223V306.909H261.592V313.108Z" fill="white"/>
<path d="M274.819 320.75L275.116 320.193L254.117 308.167L253.783 308.723L274.819 320.75Z" fill="white"/>
<path d="M272.172 309.73V321.905C272.172 322.796 271.542 323.167 270.725 322.722L257.963 315.446C257.146 314.964 256.516 313.887 256.516 312.959V300.784C256.516 299.856 257.146 299.485 257.963 299.968C261.45 301.972 267.238 305.239 270.725 307.243C271.542 307.689 272.172 308.802 272.172 309.73Z" fill="#455A64"/>
<path d="M222.547 248.076C222.027 247.111 221.768 245.997 221.768 244.735C221.768 243.473 222.015 242.656 222.51 242.285C223.029 241.914 223.771 242.013 224.736 242.582C225.131 242.805 225.49 243.065 225.812 243.362C226.133 243.659 226.405 243.968 226.628 244.29C226.677 244.364 226.702 244.438 226.702 244.512C226.702 244.562 226.69 244.611 226.665 244.661L226.368 245.181C226.343 245.23 226.306 245.242 226.257 245.218C226.232 245.193 226.183 245.143 226.108 245.069C225.762 244.599 225.354 244.228 224.884 243.956C224.315 243.634 223.882 243.597 223.586 243.844C223.264 244.116 223.103 244.673 223.103 245.515C223.103 246.381 223.264 247.123 223.586 247.742C223.907 248.36 224.352 248.831 224.921 249.152C225.441 249.449 225.873 249.561 226.22 249.486C226.269 249.486 226.319 249.499 226.368 249.524C226.393 249.548 226.43 249.61 226.479 249.709L226.776 250.637C226.801 250.687 226.813 250.736 226.813 250.786C226.813 250.81 226.789 250.847 226.739 250.897C226.294 251.045 225.626 250.86 224.736 250.34C223.796 249.796 223.066 249.041 222.547 248.076Z" fill="#455A64"/>
<path fill-rule="evenodd" clip-rule="evenodd" d="M227.504 251.713C227.454 251.59 227.43 251.453 227.43 251.305V244.809C227.43 244.636 227.454 244.537 227.504 244.512C227.578 244.463 227.677 244.475 227.801 244.549L229.878 245.737C231.263 246.529 231.956 247.742 231.956 249.375C231.956 249.894 231.869 250.29 231.696 250.563C231.548 250.81 231.313 250.934 230.991 250.934L231.845 253.978C231.869 254.027 231.882 254.077 231.882 254.126C231.882 254.25 231.82 254.287 231.696 254.237L230.769 253.718C230.695 253.668 230.645 253.619 230.62 253.569C230.571 253.52 230.534 253.446 230.509 253.347L229.767 250.488L228.765 249.932V252.084C228.765 252.233 228.741 252.332 228.691 252.381C228.642 252.431 228.555 252.419 228.431 252.344L227.801 251.973C227.677 251.899 227.578 251.812 227.504 251.713ZM229.693 249.152C229.99 249.325 230.212 249.375 230.361 249.301C230.534 249.202 230.62 248.966 230.62 248.595C230.62 248.224 230.546 247.902 230.398 247.63C230.249 247.383 230.039 247.172 229.767 246.999L228.765 246.442V248.632L229.693 249.152Z" fill="#455A64"/>
<path d="M232.773 254.721C232.724 254.597 232.699 254.461 232.699 254.312V247.816C232.699 247.643 232.724 247.532 232.773 247.482C232.848 247.458 232.947 247.482 233.07 247.557L236.484 249.524C236.607 249.598 236.694 249.685 236.743 249.784C236.793 249.883 236.817 250.007 236.817 250.155V250.563C236.817 250.737 236.793 250.848 236.743 250.897C236.694 250.947 236.607 250.935 236.484 250.86L234.072 249.45V251.157L235.742 252.159C235.865 252.234 235.952 252.32 236.001 252.419C236.051 252.518 236.075 252.642 236.075 252.791V253.199C236.075 253.372 236.051 253.471 236.001 253.496C235.952 253.545 235.865 253.533 235.742 253.459L234.072 252.494V254.238L236.484 255.612C236.607 255.686 236.694 255.772 236.743 255.871C236.793 255.97 236.817 256.107 236.817 256.28V256.688C236.817 256.861 236.793 256.96 236.743 256.985C236.694 257.035 236.607 257.022 236.484 256.948L233.07 254.981C232.947 254.906 232.848 254.82 232.773 254.721Z" fill="#455A64"/>
<path fill-rule="evenodd" clip-rule="evenodd" d="M237.459 257.426C237.41 257.302 237.385 257.166 237.385 257.018V250.522C237.385 250.373 237.41 250.274 237.459 250.225C237.533 250.176 237.632 250.188 237.756 250.262L239.462 251.264C240.402 251.784 241.12 252.489 241.614 253.38C242.084 254.271 242.319 255.347 242.319 256.61C242.319 257.896 242.084 258.701 241.614 259.022C241.12 259.344 240.402 259.233 239.462 258.688L237.756 257.686C237.632 257.612 237.533 257.525 237.459 257.426ZM239.537 257.389C240.031 257.686 240.402 257.723 240.65 257.5C240.872 257.278 240.984 256.721 240.984 255.83C240.984 254.964 240.872 254.283 240.65 253.788C240.402 253.294 240.031 252.91 239.537 252.638L238.72 252.155V256.944L239.537 257.389Z" fill="#455A64"/>
<path d="M243.121 260.649C243.072 260.55 243.047 260.414 243.047 260.241V253.782C243.047 253.609 243.072 253.497 243.121 253.448C243.171 253.398 243.27 253.411 243.418 253.485L244.012 253.856C244.16 253.93 244.259 254.029 244.309 254.153C244.358 254.252 244.383 254.388 244.383 254.561V261.02C244.383 261.193 244.358 261.305 244.309 261.354C244.259 261.404 244.16 261.379 244.012 261.28L243.418 260.946C243.27 260.872 243.171 260.773 243.121 260.649Z" fill="#455A64"/>
<path d="M246.584 262.737C246.509 262.614 246.472 262.478 246.472 262.329V256.687L245.137 255.908C245.013 255.833 244.926 255.747 244.877 255.648C244.827 255.549 244.803 255.413 244.803 255.239V254.831C244.803 254.683 244.827 254.584 244.877 254.534C244.926 254.485 245.013 254.497 245.137 254.571L249.181 256.91C249.329 256.984 249.428 257.071 249.477 257.17C249.527 257.269 249.552 257.405 249.552 257.578V257.986C249.552 258.159 249.527 258.258 249.477 258.283C249.428 258.333 249.329 258.32 249.181 258.246L247.845 257.467V263.109C247.845 263.257 247.82 263.356 247.771 263.406C247.697 263.455 247.598 263.443 247.474 263.369L246.843 262.997C246.72 262.923 246.633 262.836 246.584 262.737Z" fill="#455A64"/>
<path d="M253.781 266.075C253.262 265.11 253.002 263.996 253.002 262.734C253.002 261.472 253.249 260.656 253.744 260.284C254.263 259.913 254.993 260 255.933 260.544C256.353 260.792 256.724 261.064 257.046 261.361C257.367 261.633 257.64 261.942 257.862 262.289C257.912 262.363 257.936 262.437 257.936 262.511C257.936 262.561 257.924 262.61 257.899 262.66L257.602 263.143C257.553 263.217 257.516 263.242 257.491 263.217C257.466 263.192 257.417 263.143 257.343 263.068C256.996 262.598 256.588 262.227 256.118 261.955C255.55 261.633 255.104 261.596 254.783 261.843C254.486 262.091 254.338 262.648 254.338 263.514C254.338 264.38 254.498 265.122 254.82 265.741C255.141 266.36 255.587 266.83 256.156 267.151C256.675 267.448 257.108 267.56 257.454 267.486C257.504 267.486 257.553 267.498 257.602 267.523C257.627 267.547 257.664 267.609 257.714 267.708L258.011 268.599C258.035 268.673 258.048 268.735 258.048 268.785C258.048 268.809 258.023 268.834 257.973 268.859C257.528 269.032 256.86 268.859 255.97 268.339C255.03 267.795 254.3 267.04 253.781 266.075Z" fill="#455A64"/>
<path fill-rule="evenodd" clip-rule="evenodd" d="M258.273 269.378C258.273 269.329 258.286 269.267 258.311 269.193L260.425 263.699C260.475 263.575 260.512 263.513 260.537 263.513C260.586 263.489 260.66 263.501 260.759 263.55L261.353 263.885C261.452 263.934 261.514 263.996 261.538 264.07C261.588 264.144 261.637 264.256 261.687 264.404L263.801 272.385C263.826 272.459 263.839 272.521 263.839 272.571C263.839 272.694 263.789 272.731 263.69 272.682L262.688 272.088C262.614 272.038 262.552 271.989 262.503 271.939C262.478 271.89 262.453 271.816 262.429 271.717L262.058 270.195L260.054 269.044L259.683 270.121C259.659 270.195 259.621 270.244 259.572 270.269C259.547 270.269 259.498 270.244 259.424 270.195L258.422 269.638C258.323 269.589 258.273 269.502 258.273 269.378ZM261.724 268.784L261.056 266L260.351 267.968L261.724 268.784Z" fill="#455A64"/>
<path fill-rule="evenodd" clip-rule="evenodd" d="M264.594 273.088C264.544 272.964 264.52 272.828 264.52 272.679V266.184C264.52 266.035 264.544 265.936 264.594 265.887C264.668 265.837 264.767 265.85 264.891 265.924L266.968 267.112C268.353 267.928 269.046 269.141 269.046 270.749C269.046 271.269 268.959 271.665 268.786 271.937C268.638 272.185 268.403 272.321 268.081 272.345L268.935 275.352C268.935 275.402 268.935 275.451 268.935 275.501C268.935 275.649 268.885 275.686 268.786 275.612L267.859 275.092C267.784 275.043 267.735 274.993 267.71 274.944C267.661 274.894 267.624 274.82 267.599 274.721L266.857 271.863L265.855 271.306V273.459C265.855 273.607 265.83 273.706 265.781 273.756C265.732 273.805 265.633 273.793 265.484 273.719L264.891 273.348C264.767 273.273 264.668 273.187 264.594 273.088ZM266.746 270.527C267.067 270.7 267.302 270.749 267.451 270.675C267.624 270.576 267.71 270.341 267.71 269.97C267.71 269.599 267.636 269.277 267.488 269.005C267.339 268.757 267.129 268.547 266.857 268.374L265.855 267.817V270.007L266.746 270.527Z" fill="#455A64"/>
<path fill-rule="evenodd" clip-rule="evenodd" d="M269.865 276.091C269.816 275.967 269.791 275.831 269.791 275.682V269.187C269.791 269.013 269.816 268.914 269.865 268.89C269.939 268.84 270.038 268.852 270.162 268.927L271.869 269.929C272.809 270.449 273.526 271.154 274.021 272.045C274.515 272.911 274.763 273.987 274.763 275.274C274.763 276.561 274.515 277.365 274.021 277.687C273.526 277.984 272.809 277.872 271.869 277.353L270.162 276.351C270.038 276.276 269.939 276.19 269.865 276.091ZM271.943 276.054C272.438 276.351 272.809 276.388 273.056 276.165C273.279 275.942 273.39 275.385 273.39 274.495C273.39 273.628 273.279 272.948 273.056 272.453C272.809 271.958 272.438 271.575 271.943 271.302L271.164 270.82V275.608L271.943 276.054Z" fill="#455A64"/>
<g opacity="0.1">
<path d="M222.547 248.076C222.027 247.111 221.768 245.997 221.768 244.735C221.768 243.473 222.015 242.656 222.51 242.285C223.029 241.914 223.771 242.013 224.736 242.582C225.131 242.805 225.49 243.065 225.812 243.362C226.133 243.659 226.405 243.968 226.628 244.29C226.677 244.364 226.702 244.438 226.702 244.512C226.702 244.562 226.69 244.611 226.665 244.661L226.368 245.181C226.343 245.23 226.306 245.242 226.257 245.218C226.232 245.193 226.183 245.143 226.108 245.069C225.762 244.599 225.354 244.228 224.884 243.956C224.315 243.634 223.882 243.597 223.586 243.844C223.264 244.116 223.103 244.673 223.103 245.515C223.103 246.381 223.264 247.123 223.586 247.742C223.907 248.36 224.352 248.831 224.921 249.152C225.441 249.449 225.873 249.561 226.22 249.486C226.269 249.486 226.319 249.499 226.368 249.524C226.393 249.548 226.43 249.61 226.479 249.709L226.776 250.637C226.801 250.687 226.813 250.736 226.813 250.786C226.813 250.81 226.789 250.847 226.739 250.897C226.294 251.045 225.626 250.86 224.736 250.34C223.796 249.796 223.066 249.041 222.547 248.076Z" fill="#455A64"/>
<path fill-rule="evenodd" clip-rule="evenodd" d="M227.504 251.713C227.454 251.59 227.43 251.453 227.43 251.305V244.809C227.43 244.636 227.454 244.537 227.504 244.512C227.578 244.463 227.677 244.475 227.801 244.549L229.878 245.737C231.263 246.529 231.956 247.742 231.956 249.375C231.956 249.894 231.869 250.29 231.696 250.563C231.548 250.81 231.313 250.934 230.991 250.934L231.845 253.978C231.869 254.027 231.882 254.077 231.882 254.126C231.882 254.25 231.82 254.287 231.696 254.237L230.769 253.718C230.695 253.668 230.645 253.619 230.62 253.569C230.571 253.52 230.534 253.446 230.509 253.347L229.767 250.488L228.765 249.932V252.084C228.765 252.233 228.741 252.332 228.691 252.381C228.642 252.431 228.555 252.419 228.431 252.344L227.801 251.973C227.677 251.899 227.578 251.812 227.504 251.713ZM229.693 249.152C229.99 249.325 230.212 249.375 230.361 249.301C230.534 249.202 230.62 248.966 230.62 248.595C230.62 248.224 230.546 247.902 230.398 247.63C230.249 247.383 230.039 247.172 229.767 246.999L228.765 246.442V248.632L229.693 249.152Z" fill="#455A64"/>
<path d="M232.773 254.721C232.724 254.597 232.699 254.461 232.699 254.312V247.816C232.699 247.643 232.724 247.532 232.773 247.482C232.848 247.458 232.947 247.482 233.07 247.557L236.484 249.524C236.607 249.598 236.694 249.685 236.743 249.784C236.793 249.883 236.817 250.007 236.817 250.155V250.563C236.817 250.737 236.793 250.848 236.743 250.897C236.694 250.947 236.607 250.935 236.484 250.86L234.072 249.45V251.157L235.742 252.159C235.865 252.234 235.952 252.32 236.001 252.419C236.051 252.518 236.075 252.642 236.075 252.791V253.199C236.075 253.372 236.051 253.471 236.001 253.496C235.952 253.545 235.865 253.533 235.742 253.459L234.072 252.494V254.238L236.484 255.612C236.607 255.686 236.694 255.772 236.743 255.871C236.793 255.97 236.817 256.107 236.817 256.28V256.688C236.817 256.861 236.793 256.96 236.743 256.985C236.694 257.035 236.607 257.022 236.484 256.948L233.07 254.981C232.947 254.906 232.848 254.82 232.773 254.721Z" fill="#455A64"/>
<path fill-rule="evenodd" clip-rule="evenodd" d="M237.459 257.426C237.41 257.302 237.385 257.166 237.385 257.018V250.522C237.385 250.373 237.41 250.274 237.459 250.225C237.533 250.176 237.632 250.188 237.756 250.262L239.462 251.264C240.402 251.784 241.12 252.489 241.614 253.38C242.084 254.271 242.319 255.347 242.319 256.61C242.319 257.896 242.084 258.701 241.614 259.022C241.12 259.344 240.402 259.233 239.462 258.688L237.756 257.686C237.632 257.612 237.533 257.525 237.459 257.426ZM239.537 257.389C240.031 257.686 240.402 257.723 240.65 257.5C240.872 257.278 240.984 256.721 240.984 255.83C240.984 254.964 240.872 254.283 240.65 253.788C240.402 253.294 240.031 252.91 239.537 252.638L238.72 252.155V256.944L239.537 257.389Z" fill="#455A64"/>
<path d="M243.121 260.649C243.072 260.55 243.047 260.414 243.047 260.241V253.782C243.047 253.609 243.072 253.497 243.121 253.448C243.171 253.398 243.27 253.411 243.418 253.485L244.012 253.856C244.16 253.93 244.259 254.029 244.309 254.153C244.358 254.252 244.383 254.388 244.383 254.561V261.02C244.383 261.193 244.358 261.305 244.309 261.354C244.259 261.404 244.16 261.379 244.012 261.28L243.418 260.946C243.27 260.872 243.171 260.773 243.121 260.649Z" fill="#455A64"/>
<path d="M246.584 262.737C246.509 262.614 246.472 262.478 246.472 262.329V256.687L245.137 255.908C245.013 255.833 244.926 255.747 244.877 255.648C244.827 255.549 244.803 255.413 244.803 255.239V254.831C244.803 254.683 244.827 254.584 244.877 254.534C244.926 254.485 245.013 254.497 245.137 254.571L249.181 256.91C249.329 256.984 249.428 257.071 249.477 257.17C249.527 257.269 249.552 257.405 249.552 257.578V257.986C249.552 258.159 249.527 258.258 249.477 258.283C249.428 258.333 249.329 258.32 249.181 258.246L247.845 257.467V263.109C247.845 263.257 247.82 263.356 247.771 263.406C247.697 263.455 247.598 263.443 247.474 263.369L246.843 262.997C246.72 262.923 246.633 262.836 246.584 262.737Z" fill="#455A64"/>
<path d="M253.781 266.075C253.262 265.11 253.002 263.996 253.002 262.734C253.002 261.472 253.249 260.656 253.744 260.284C254.263 259.913 254.993 260 255.933 260.544C256.353 260.792 256.724 261.064 257.046 261.361C257.367 261.633 257.64 261.942 257.862 262.289C257.912 262.363 257.936 262.437 257.936 262.511C257.936 262.561 257.924 262.61 257.899 262.66L257.602 263.143C257.553 263.217 257.516 263.242 257.491 263.217C257.466 263.192 257.417 263.143 257.343 263.068C256.996 262.598 256.588 262.227 256.118 261.955C255.55 261.633 255.104 261.596 254.783 261.843C254.486 262.091 254.338 262.648 254.338 263.514C254.338 264.38 254.498 265.122 254.82 265.741C255.141 266.36 255.587 266.83 256.156 267.151C256.675 267.448 257.108 267.56 257.454 267.486C257.504 267.486 257.553 267.498 257.602 267.523C257.627 267.547 257.664 267.609 257.714 267.708L258.011 268.599C258.035 268.673 258.048 268.735 258.048 268.785C258.048 268.809 258.023 268.834 257.973 268.859C257.528 269.032 256.86 268.859 255.97 268.339C255.03 267.795 254.3 267.04 253.781 266.075Z" fill="#455A64"/>
<path fill-rule="evenodd" clip-rule="evenodd" d="M258.273 269.378C258.273 269.329 258.286 269.267 258.311 269.193L260.425 263.699C260.475 263.575 260.512 263.513 260.537 263.513C260.586 263.489 260.66 263.501 260.759 263.55L261.353 263.885C261.452 263.934 261.514 263.996 261.538 264.07C261.588 264.144 261.637 264.256 261.687 264.404L263.801 272.385C263.826 272.459 263.839 272.521 263.839 272.571C263.839 272.694 263.789 272.731 263.69 272.682L262.688 272.088C262.614 272.038 262.552 271.989 262.503 271.939C262.478 271.89 262.453 271.816 262.429 271.717L262.058 270.195L260.054 269.044L259.683 270.121C259.659 270.195 259.621 270.244 259.572 270.269C259.547 270.269 259.498 270.244 259.424 270.195L258.422 269.638C258.323 269.589 258.273 269.502 258.273 269.378ZM261.724 268.784L261.056 266L260.351 267.968L261.724 268.784Z" fill="#455A64"/>
<path fill-rule="evenodd" clip-rule="evenodd" d="M264.594 273.088C264.544 272.964 264.52 272.828 264.52 272.679V266.184C264.52 266.035 264.544 265.936 264.594 265.887C264.668 265.837 264.767 265.85 264.891 265.924L266.968 267.112C268.353 267.928 269.046 269.141 269.046 270.749C269.046 271.269 268.959 271.665 268.786 271.937C268.638 272.185 268.403 272.321 268.081 272.345L268.935 275.352C268.935 275.402 268.935 275.451 268.935 275.501C268.935 275.649 268.885 275.686 268.786 275.612L267.859 275.092C267.784 275.043 267.735 274.993 267.71 274.944C267.661 274.894 267.624 274.82 267.599 274.721L266.857 271.863L265.855 271.306V273.459C265.855 273.607 265.83 273.706 265.781 273.756C265.732 273.805 265.633 273.793 265.484 273.719L264.891 273.348C264.767 273.273 264.668 273.187 264.594 273.088ZM266.746 270.527C267.067 270.7 267.302 270.749 267.451 270.675C267.624 270.576 267.71 270.341 267.71 269.97C267.71 269.599 267.636 269.277 267.488 269.005C267.339 268.757 267.129 268.547 266.857 268.374L265.855 267.817V270.007L266.746 270.527Z" fill="#455A64"/>
<path fill-rule="evenodd" clip-rule="evenodd" d="M269.865 276.091C269.816 275.967 269.791 275.831 269.791 275.682V269.187C269.791 269.013 269.816 268.914 269.865 268.89C269.939 268.84 270.038 268.852 270.162 268.927L271.869 269.929C272.809 270.449 273.526 271.154 274.021 272.045C274.515 272.911 274.763 273.987 274.763 275.274C274.763 276.561 274.515 277.365 274.021 277.687C273.526 277.984 272.809 277.872 271.869 277.353L270.162 276.351C270.038 276.276 269.939 276.19 269.865 276.091ZM271.943 276.054C272.438 276.351 272.809 276.388 273.056 276.165C273.279 275.942 273.39 275.385 273.39 274.495C273.39 273.628 273.279 272.948 273.056 272.453C272.809 271.958 272.438 271.575 271.943 271.302L271.164 270.82V275.608L271.943 276.054Z" fill="#455A64"/>
</g>
<path d="M197.474 263.169L201.11 265.285C201.593 265.545 201.964 266.213 201.964 266.77V267.883C201.964 268.403 201.593 268.626 201.11 268.366L197.474 266.25C196.992 265.99 196.584 265.322 196.584 264.765V263.652C196.584 263.095 196.992 262.872 197.474 263.169Z" fill="#16E01E"/>
<path d="M189.433 258.53L193.069 260.609C193.552 260.906 193.923 261.574 193.923 262.094V263.207C193.923 263.764 193.552 263.987 193.069 263.727L189.433 261.611C188.951 261.351 188.58 260.683 188.58 260.127V259.013C188.58 258.456 188.951 258.233 189.433 258.53Z" fill="#16E01E"/>
<path d="M235.402 292.863L189.99 266.619C189.211 266.174 188.58 266.545 188.58 267.436V268.809C188.58 269.7 189.211 270.814 189.99 271.259L235.402 297.503C236.181 297.948 236.811 297.577 236.811 296.686V295.313C236.811 294.422 236.181 293.308 235.402 292.863Z" fill="#16E01E"/>
<path d="M197.474 263.169L201.11 265.285C201.593 265.545 201.964 266.213 201.964 266.77V267.883C201.964 268.403 201.593 268.626 201.11 268.366L197.474 266.25C196.992 265.99 196.584 265.322 196.584 264.765V263.652C196.584 263.095 196.992 262.872 197.474 263.169Z" fill="#455A64"/>
<path d="M189.433 258.53L193.069 260.609C193.552 260.906 193.923 261.574 193.923 262.094V263.207C193.923 263.764 193.552 263.987 193.069 263.727L189.433 261.611C188.951 261.351 188.58 260.683 188.58 260.127V259.013C188.58 258.456 188.951 258.233 189.433 258.53Z" fill="#455A64"/>
<path d="M235.402 292.863L189.99 266.619C189.211 266.174 188.58 266.545 188.58 267.436V268.809C188.58 269.7 189.211 270.814 189.99 271.259L235.402 297.503C236.181 297.948 236.811 297.577 236.811 296.686V295.313C236.811 294.422 236.181 293.308 235.402 292.863Z" fill="#455A64"/>
<path d="M189.508 245.891L189.657 245.965C190.176 246.262 190.585 247.079 190.585 247.747V251.347C190.585 252.016 190.176 252.35 189.657 252.053L189.508 251.978C188.988 251.719 188.58 250.939 188.58 250.234V246.596C188.58 245.891 188.988 245.594 189.508 245.891Z" fill="#FAFAFA"/>
<path d="M194.388 248.674L194.537 248.785C195.056 249.082 195.501 249.862 195.501 250.53V254.131C195.501 254.799 195.056 255.133 194.537 254.873L194.388 254.762C193.869 254.502 193.461 253.722 193.461 253.017V249.379C193.461 248.674 193.869 248.377 194.388 248.674Z" fill="#FAFAFA"/>
<path d="M199.074 251.464L199.26 251.575C199.779 251.872 200.187 252.652 200.187 253.357V256.921C200.187 257.589 199.742 257.923 199.222 257.663L199.111 257.589C198.555 257.292 198.146 256.512 198.146 255.807V252.169C198.146 251.501 198.555 251.167 199.074 251.464Z" fill="#FAFAFA"/>
<path d="M203.953 254.247L204.138 254.359C204.658 254.656 205.066 255.435 205.066 256.14V259.704C205.066 260.409 204.658 260.706 204.138 260.446L203.99 260.372C203.471 260.075 203.025 259.295 203.025 258.59V254.952C203.025 254.284 203.471 253.95 203.953 254.247Z" fill="#FAFAFA"/>
<path d="M211.957 258.842L212.142 258.917C212.662 259.214 213.07 260.03 213.07 260.698V264.299C213.07 264.967 212.625 265.301 212.105 265.004L211.994 264.93C211.474 264.67 211.029 263.891 211.029 263.185V259.548C211.029 258.842 211.437 258.546 211.957 258.842Z" fill="#FAFAFA"/>
<path d="M216.838 261.626L217.023 261.737C217.543 262.034 217.951 262.813 217.951 263.482V267.082C217.951 267.75 217.543 268.084 217.023 267.787L216.875 267.713C216.355 267.453 215.91 266.674 215.91 265.969V262.331C215.91 261.626 216.355 261.329 216.838 261.626Z" fill="#FAFAFA"/>
<path d="M221.524 264.416L221.672 264.527C222.192 264.824 222.6 265.603 222.6 266.309V269.872C222.6 270.54 222.192 270.874 221.672 270.615L221.524 270.503C221.004 270.243 220.596 269.464 220.596 268.759V265.121C220.596 264.453 221.004 264.119 221.524 264.416Z" fill="#FAFAFA"/>
<path d="M226.402 267.199L226.588 267.31C227.07 267.607 227.515 268.387 227.515 269.092V272.655C227.515 273.324 227.07 273.658 226.551 273.398L226.402 273.324C225.883 273.027 225.475 272.247 225.475 271.542V267.904C225.475 267.236 225.883 266.902 226.402 267.199Z" fill="#FAFAFA"/>
<path d="M234.211 271.794L234.36 271.868C234.879 272.165 235.288 272.982 235.288 273.65V277.251C235.288 277.919 234.879 278.253 234.36 277.956L234.211 277.882C233.692 277.622 233.283 276.842 233.283 276.137V272.499C233.283 271.794 233.692 271.497 234.211 271.794Z" fill="#FAFAFA"/>
<path d="M239.092 274.577L239.277 274.689C239.759 274.986 240.205 275.765 240.205 276.433V280.034C240.205 280.702 239.759 281.036 239.24 280.739L239.092 280.665C238.572 280.405 238.164 279.626 238.164 278.92V275.283C238.164 274.577 238.572 274.28 239.092 274.577Z" fill="#FAFAFA"/>
<path d="M243.777 277.361L243.963 277.472C244.482 277.769 244.89 278.548 244.89 279.254V282.817C244.89 283.485 244.482 283.819 243.963 283.559L243.814 283.448C243.295 283.188 242.85 282.409 242.85 281.704V278.066C242.85 277.361 243.258 277.064 243.777 277.361Z" fill="#FAFAFA"/>
<path d="M248.693 280.138L248.842 280.25C249.361 280.547 249.769 281.326 249.769 282.031V285.595C249.769 286.263 249.361 286.597 248.842 286.337L248.693 286.263C248.174 285.966 247.766 285.187 247.766 284.481L247.729 280.844C247.729 280.175 248.174 279.841 248.693 280.138Z" fill="#FAFAFA"/>
<path d="M256.662 284.758L256.847 284.832C257.367 285.129 257.775 285.946 257.775 286.614V290.215C257.775 290.883 257.367 291.217 256.847 290.92L256.699 290.846C256.18 290.586 255.734 289.806 255.734 289.101V285.463C255.734 284.758 256.18 284.461 256.662 284.758Z" fill="#FAFAFA"/>
<path d="M261.543 287.541L261.692 287.653C262.211 287.95 262.62 288.729 262.62 289.397V292.998C262.62 293.666 262.211 294 261.692 293.703L261.543 293.629C261.024 293.369 260.615 292.589 260.615 291.884V288.246C260.615 287.541 261.024 287.244 261.543 287.541Z" fill="#FAFAFA"/>
<path d="M266.229 290.324L266.377 290.436C266.897 290.733 267.305 291.512 267.305 292.18V295.781C267.305 296.449 266.897 296.783 266.377 296.523L266.229 296.412C265.709 296.152 265.301 295.373 265.301 294.667V291.03C265.301 290.324 265.709 290.027 266.229 290.324Z" fill="#FAFAFA"/>
<path d="M271.107 293.114L271.293 293.226C271.812 293.523 272.22 294.302 272.22 295.007V298.571C272.22 299.239 271.775 299.573 271.256 299.313L271.107 299.239C270.588 298.942 270.18 298.163 270.18 297.457V293.82C270.18 293.152 270.588 292.817 271.107 293.114Z" fill="#FAFAFA"/>
<path opacity="0.3" d="M283.793 335.91C283.793 337.951 282.346 338.805 280.566 337.766L193.564 287.506C191.783 286.504 190.336 283.98 190.336 281.938V233.423L283.793 287.395V335.91Z" fill="white"/>
<path d="M167.089 301.722L239.881 377.965C240.623 378.744 241.328 379.004 241.773 378.707C242.181 378.485 242.441 377.891 242.441 376.926V286.911C242.441 285.909 242.144 284.721 241.736 283.607C241.254 282.382 240.586 281.269 239.881 280.489L167.089 204.209C164.937 201.944 163.787 199.123 163.787 196.228V293.704C163.787 296.599 164.937 299.457 167.089 301.722Z" fill="#37474F"/>
<path d="M169.234 215.188C169.012 215.188 168.863 215.002 168.863 214.816V213.703C168.863 213.554 168.938 213.406 169.086 213.369C169.234 213.294 169.383 213.332 169.494 213.443L170.274 214.26C170.385 214.408 170.385 214.631 170.237 214.779C170.088 214.928 169.866 214.891 169.717 214.742L169.606 214.631V214.816C169.606 215.002 169.42 215.188 169.234 215.188Z" fill="#455A64"/>
<path d="M237.358 363.263C237.136 363.263 236.987 363.115 236.987 362.892V360.702C236.987 360.516 237.136 360.331 237.358 360.331C237.544 360.331 237.729 360.516 237.729 360.702V362.892C237.729 363.115 237.544 363.263 237.358 363.263ZM237.358 357.435C237.136 357.435 236.987 357.287 236.987 357.064V354.874C236.987 354.651 237.136 354.503 237.358 354.503C237.544 354.503 237.729 354.651 237.729 354.874V357.064C237.729 357.287 237.544 357.435 237.358 357.435ZM237.358 351.608C237.136 351.608 236.987 351.422 236.987 351.236V349.046C236.987 348.824 237.136 348.675 237.358 348.675C237.544 348.675 237.729 348.824 237.729 349.046V351.236C237.729 351.422 237.544 351.608 237.358 351.608ZM237.358 345.743C237.136 345.743 236.987 345.594 236.987 345.372V343.182C236.987 342.996 237.136 342.81 237.358 342.81C237.544 342.81 237.729 342.996 237.729 343.182V345.372C237.729 345.594 237.544 345.743 237.358 345.743ZM237.358 339.915C237.136 339.915 236.987 339.729 236.987 339.544V337.354C236.987 337.131 237.136 336.983 237.358 336.983C237.544 336.983 237.729 337.131 237.729 337.354V339.544C237.729 339.729 237.544 339.915 237.358 339.915ZM237.358 334.05C237.136 334.05 236.987 333.902 236.987 333.679V331.489C236.987 331.303 237.136 331.118 237.358 331.118C237.544 331.118 237.729 331.303 237.729 331.489V333.679C237.729 333.902 237.544 334.05 237.358 334.05ZM237.358 328.222C237.136 328.222 236.987 328.074 236.987 327.851V325.661C236.987 325.476 237.136 325.29 237.358 325.29C237.544 325.29 237.729 325.476 237.729 325.661V327.851C237.729 328.074 237.544 328.222 237.358 328.222ZM237.358 322.395C237.136 322.395 236.987 322.209 236.987 322.023V319.833C236.987 319.611 237.136 319.462 237.358 319.462C237.544 319.462 237.729 319.611 237.729 319.833V322.023C237.729 322.209 237.544 322.395 237.358 322.395ZM237.358 316.53C237.136 316.53 236.987 316.381 236.987 316.159V313.969C236.987 313.783 237.136 313.597 237.358 313.597C237.544 313.597 237.729 313.783 237.729 313.969V316.159C237.729 316.381 237.544 316.53 237.358 316.53ZM237.358 310.702C237.136 310.702 236.987 310.516 236.987 310.331V308.141C236.987 307.918 237.136 307.77 237.358 307.77C237.544 307.77 237.729 307.918 237.729 308.141V310.331C237.729 310.516 237.544 310.702 237.358 310.702ZM237.358 304.874C237.136 304.874 236.987 304.689 236.987 304.503V302.313C236.987 302.09 237.136 301.942 237.358 301.942C237.544 301.942 237.729 302.09 237.729 302.313V304.503C237.729 304.689 237.544 304.874 237.358 304.874ZM237.358 299.009C237.136 299.009 236.987 298.861 236.987 298.638V296.448C236.987 296.263 237.136 296.077 237.358 296.077C237.544 296.077 237.729 296.263 237.729 296.448V298.638C237.729 298.861 237.544 299.009 237.358 299.009ZM237.358 293.182C237.136 293.182 236.987 292.996 236.987 292.81V290.62C236.987 290.398 237.136 290.249 237.358 290.249C237.544 290.249 237.729 290.398 237.729 290.62V292.81C237.729 292.996 237.544 293.182 237.358 293.182ZM237.358 287.317C237.136 287.317 236.987 287.168 236.987 286.946C236.987 286.797 236.913 286.315 236.653 285.609C236.554 285.387 236.468 285.201 236.394 285.052C236.282 284.867 236.357 284.644 236.542 284.533C236.728 284.459 236.95 284.533 237.061 284.718C237.16 284.892 237.247 285.102 237.321 285.349C237.655 286.129 237.729 286.686 237.729 286.908C237.729 287.094 237.544 287.317 237.358 287.317ZM234.353 282.491C234.242 282.491 234.168 282.454 234.093 282.38L232.572 280.784C232.424 280.635 232.424 280.413 232.572 280.264C232.721 280.116 232.98 280.153 233.092 280.301L234.613 281.86C234.761 282.009 234.761 282.269 234.613 282.38C234.539 282.454 234.452 282.491 234.353 282.491ZM230.309 278.26C230.235 278.26 230.124 278.222 230.049 278.148L228.528 276.552C228.38 276.404 228.417 276.181 228.565 276.032C228.714 275.921 228.936 275.921 229.085 276.07L230.569 277.629C230.717 277.777 230.717 278.037 230.569 278.148C230.495 278.222 230.408 278.26 230.309 278.26ZM226.302 274.028C226.191 274.028 226.08 273.991 226.005 273.917L224.521 272.358C224.373 272.209 224.373 271.949 224.521 271.801C224.67 271.689 224.892 271.689 225.041 271.838L226.562 273.434C226.71 273.545 226.673 273.805 226.525 273.954C226.451 274.003 226.376 274.028 226.302 274.028ZM222.258 269.833C222.147 269.833 222.073 269.796 221.998 269.685L220.477 268.126C220.329 267.978 220.329 267.718 220.477 267.606C220.626 267.458 220.885 267.458 220.997 267.606L222.518 269.202C222.666 269.351 222.666 269.574 222.518 269.722C222.444 269.796 222.357 269.833 222.258 269.833ZM218.214 265.602C218.14 265.602 218.029 265.565 217.954 265.491L216.433 263.894C216.285 263.746 216.322 263.523 216.47 263.375C216.619 263.226 216.841 263.226 216.99 263.375L218.474 264.971C218.622 265.119 218.622 265.342 218.474 265.491C218.4 265.565 218.313 265.602 218.214 265.602ZM214.207 261.37C214.096 261.37 213.985 261.333 213.91 261.259L212.426 259.663C212.278 259.514 212.278 259.292 212.426 259.143C212.575 258.995 212.797 258.995 212.946 259.143L214.467 260.739C214.615 260.888 214.578 261.11 214.43 261.259C214.356 261.333 214.281 261.37 214.207 261.37ZM210.163 257.139C210.052 257.139 209.978 257.102 209.904 257.027L208.382 255.431C208.234 255.283 208.234 255.06 208.382 254.911C208.531 254.763 208.791 254.763 208.902 254.911L210.423 256.508C210.571 256.656 210.571 256.879 210.423 257.027C210.349 257.102 210.262 257.139 210.163 257.139ZM206.119 252.907C206.045 252.907 205.934 252.87 205.86 252.796L204.338 251.2C204.19 251.051 204.227 250.828 204.375 250.68C204.524 250.531 204.746 250.569 204.895 250.717L206.379 252.276C206.527 252.424 206.527 252.684 206.379 252.796C206.305 252.87 206.218 252.907 206.119 252.907ZM202.112 248.675C202.001 248.675 201.89 248.638 201.816 248.564L200.331 247.005C200.183 246.857 200.183 246.597 200.331 246.448C200.48 246.337 200.702 246.337 200.851 246.485L202.372 248.044C202.52 248.193 202.52 248.453 202.372 248.601C202.273 248.651 202.187 248.675 202.112 248.675ZM198.068 244.444C197.957 244.444 197.883 244.407 197.809 244.332L196.287 242.773C196.139 242.625 196.139 242.365 196.287 242.254C196.436 242.105 196.696 242.105 196.807 242.254L198.328 243.85C198.476 243.998 198.476 244.221 198.328 244.37C198.254 244.419 198.167 244.444 198.068 244.444ZM194.024 240.249C193.95 240.249 193.839 240.212 193.765 240.138L192.243 238.542C192.095 238.393 192.132 238.133 192.281 238.022C192.429 237.874 192.652 237.874 192.8 238.022L194.321 239.618C194.432 239.767 194.432 239.989 194.284 240.138C194.21 240.212 194.123 240.249 194.024 240.249ZM190.017 236.018C189.906 236.018 189.795 235.981 189.721 235.906L188.237 234.31C188.088 234.162 188.088 233.939 188.237 233.791C188.385 233.642 188.608 233.642 188.756 233.791L190.277 235.387C190.426 235.535 190.426 235.758 190.277 235.906C190.178 235.981 190.092 236.018 190.017 236.018ZM185.973 231.786C185.862 231.786 185.788 231.749 185.714 231.675L184.193 230.079C184.044 229.93 184.044 229.707 184.193 229.559C184.341 229.41 184.601 229.41 184.712 229.559L186.233 231.155C186.382 231.304 186.382 231.526 186.233 231.675C186.159 231.749 186.072 231.786 185.973 231.786ZM181.929 227.554C181.855 227.554 181.744 227.517 181.67 227.443L180.149 225.847C180.037 225.698 180.037 225.476 180.186 225.327C180.334 225.179 180.557 225.179 180.705 225.327L182.226 226.923C182.337 227.072 182.337 227.295 182.189 227.443C182.115 227.517 182.028 227.554 181.929 227.554ZM177.922 223.323C177.811 223.323 177.7 223.286 177.626 223.211L176.142 221.615C175.993 221.467 175.993 221.244 176.142 221.096C176.29 220.947 176.513 220.984 176.661 221.133L178.182 222.692C178.331 222.84 178.331 223.1 178.182 223.211C178.108 223.286 178.021 223.323 177.922 223.323ZM173.878 219.091C173.767 219.091 173.693 219.054 173.619 218.98L172.098 217.421C171.949 217.272 171.949 217.013 172.098 216.864C172.246 216.753 172.506 216.753 172.617 216.901L174.138 218.46C174.287 218.609 174.287 218.868 174.138 219.017C174.064 219.066 173.977 219.091 173.878 219.091Z" fill="#455A64"/>
<path d="M237.364 368.042C237.252 368.042 237.141 368.005 237.067 367.931L236.324 367.115C236.176 366.966 236.176 366.743 236.324 366.595C236.473 366.446 236.695 366.446 236.844 366.595L236.992 366.743V366.558C236.992 366.335 237.141 366.187 237.364 366.187C237.549 366.187 237.735 366.335 237.735 366.558V367.671C237.735 367.82 237.623 367.968 237.475 368.005C237.45 368.03 237.413 368.042 237.364 368.042Z" fill="#455A64"/>
<path d="M234.124 364.525C234.013 364.525 233.901 364.488 233.864 364.414L232.269 362.743C232.158 362.595 232.158 362.372 232.306 362.224C232.454 362.075 232.677 362.112 232.825 362.261L234.384 363.894C234.532 364.043 234.532 364.265 234.384 364.414C234.309 364.488 234.223 364.525 234.124 364.525ZM229.932 360.145C229.857 360.145 229.746 360.108 229.672 360.034L228.114 358.4C227.965 358.252 227.965 357.992 228.114 357.881C228.262 357.732 228.522 357.732 228.67 357.881L230.228 359.514C230.34 359.662 230.34 359.885 230.191 360.034C230.117 360.108 230.03 360.145 229.932 360.145ZM225.776 355.765C225.665 355.765 225.591 355.728 225.516 355.654L223.958 354.02C223.81 353.872 223.81 353.649 223.958 353.501C224.107 353.352 224.329 353.352 224.478 353.501L226.036 355.134C226.184 355.282 226.184 355.542 226.036 355.691C225.962 355.74 225.875 355.765 225.776 355.765ZM221.621 351.422C221.51 351.422 221.398 351.385 221.361 351.311L219.766 349.64C219.655 349.529 219.655 349.269 219.803 349.121C219.951 349.009 220.174 349.009 220.322 349.158L221.881 350.791C222.029 350.939 222.029 351.162 221.881 351.311C221.806 351.385 221.72 351.422 221.621 351.422ZM217.428 347.042C217.354 347.042 217.243 347.005 217.169 346.93L215.611 345.297C215.462 345.149 215.462 344.926 215.611 344.778C215.759 344.629 216.019 344.629 216.167 344.778L217.725 346.411C217.837 346.559 217.837 346.782 217.688 346.93C217.614 347.005 217.527 347.042 217.428 347.042ZM213.273 342.662C213.162 342.662 213.088 342.625 213.013 342.55L211.455 340.917C211.307 340.769 211.307 340.546 211.455 340.397C211.604 340.249 211.826 340.249 211.975 340.397L213.533 342.068C213.681 342.216 213.681 342.439 213.533 342.587C213.459 342.637 213.372 342.662 213.273 342.662ZM209.118 338.319C209.007 338.319 208.895 338.282 208.858 338.207L207.263 336.574C207.152 336.426 207.151 336.166 207.3 336.017C207.448 335.906 207.671 335.906 207.819 336.054L209.378 337.688C209.526 337.836 209.526 338.059 209.378 338.207C209.303 338.282 209.217 338.319 209.118 338.319ZM204.925 333.939C204.851 333.939 204.74 333.902 204.666 333.827L203.107 332.194C202.959 332.046 202.959 331.823 203.107 331.674C203.256 331.526 203.516 331.526 203.664 331.674L205.222 333.308C205.334 333.456 205.334 333.716 205.185 333.827C205.111 333.902 205.024 333.939 204.925 333.939ZM200.77 329.596C200.659 329.596 200.585 329.559 200.51 329.447L198.952 327.814C198.804 327.665 198.804 327.443 198.952 327.294C199.101 327.146 199.323 327.183 199.472 327.331L201.03 328.965C201.178 329.113 201.178 329.336 201.03 329.484C200.956 329.559 200.869 329.596 200.77 329.596ZM196.615 325.216C196.504 325.216 196.429 325.178 196.355 325.104L194.76 323.471C194.648 323.322 194.648 323.063 194.797 322.951C194.945 322.803 195.168 322.803 195.316 322.951L196.875 324.585C197.023 324.733 197.023 324.956 196.875 325.104C196.8 325.178 196.714 325.216 196.615 325.216ZM192.422 320.835C192.348 320.835 192.237 320.798 192.163 320.724L190.604 319.091C190.456 318.942 190.456 318.72 190.604 318.571C190.753 318.423 191.013 318.423 191.161 318.571L192.719 320.204C192.831 320.353 192.831 320.613 192.682 320.761C192.608 320.811 192.521 320.835 192.422 320.835ZM188.267 316.493C188.156 316.493 188.082 316.455 188.007 316.381L186.449 314.711C186.301 314.562 186.301 314.34 186.449 314.191C186.598 314.043 186.82 314.08 186.969 314.228L188.527 315.861C188.675 316.01 188.675 316.233 188.527 316.381C188.453 316.455 188.366 316.493 188.267 316.493ZM184.112 312.112C184 312.112 183.926 312.075 183.852 312.001L182.257 310.368C182.145 310.219 182.145 309.959 182.294 309.848C182.442 309.7 182.665 309.7 182.813 309.848L184.371 311.481C184.52 311.63 184.52 311.853 184.371 312.001C184.297 312.075 184.211 312.112 184.112 312.112ZM179.919 307.732C179.845 307.732 179.734 307.695 179.66 307.621L178.101 305.988C177.953 305.839 177.953 305.617 178.101 305.468C178.25 305.32 178.51 305.32 178.658 305.468L180.216 307.101C180.365 307.25 180.327 307.51 180.179 307.658C180.105 307.708 180.018 307.732 179.919 307.732ZM175.764 303.389C175.653 303.389 175.579 303.352 175.504 303.278L173.946 301.645C173.798 301.496 173.798 301.236 173.946 301.088C174.095 300.977 174.317 300.977 174.466 301.125L176.024 302.758C176.172 302.907 176.172 303.13 176.024 303.278C175.95 303.352 175.863 303.389 175.764 303.389ZM171.609 299.009C171.497 299.009 171.423 298.972 171.349 298.898L170.83 298.378C170.459 297.982 170.137 297.549 169.865 297.079C169.754 296.931 169.791 296.708 169.976 296.596C170.125 296.485 170.384 296.522 170.496 296.708C170.743 297.129 171.04 297.512 171.386 297.859L171.868 298.378C172.017 298.527 172.017 298.787 171.868 298.898C171.794 298.972 171.708 299.009 171.609 299.009ZM169.234 293.664C169.012 293.664 168.863 293.516 168.863 293.293V291.029C168.863 290.843 169.012 290.657 169.234 290.657C169.42 290.657 169.605 290.843 169.605 291.029V293.293C169.605 293.516 169.42 293.664 169.234 293.664ZM169.234 287.651C169.012 287.651 168.863 287.465 168.863 287.279V285.015C168.863 284.792 169.012 284.644 169.234 284.644C169.42 284.644 169.605 284.792 169.605 285.015V287.279C169.605 287.465 169.42 287.651 169.234 287.651ZM169.234 281.6C169.012 281.6 168.863 281.452 168.863 281.229V278.965C168.863 278.779 169.012 278.594 169.234 278.594C169.42 278.594 169.605 278.779 169.605 278.965V281.229C169.605 281.452 169.42 281.6 169.234 281.6ZM169.234 275.55C169.012 275.55 168.863 275.401 168.863 275.179V272.914C168.863 272.729 169.012 272.543 169.234 272.543C169.42 272.543 169.605 272.729 169.605 272.914V275.179C169.605 275.401 169.42 275.55 169.234 275.55ZM169.234 269.536C169.012 269.536 168.863 269.351 168.863 269.165V266.901C168.863 266.678 169.012 266.53 169.234 266.53C169.42 266.53 169.605 266.678 169.605 266.901V269.165C169.605 269.351 169.42 269.536 169.234 269.536ZM169.234 263.486C169.012 263.486 168.863 263.337 168.863 263.115V260.85C168.863 260.665 169.012 260.479 169.234 260.479C169.42 260.479 169.605 260.665 169.605 260.85V263.115C169.605 263.337 169.42 263.486 169.234 263.486ZM169.234 257.435C169.012 257.435 168.863 257.287 168.863 257.064V254.8C168.863 254.614 169.012 254.429 169.234 254.429C169.42 254.429 169.605 254.614 169.605 254.8V257.064C169.605 257.287 169.42 257.435 169.234 257.435ZM169.234 251.422C169.012 251.422 168.863 251.237 168.863 251.051V248.787C168.863 248.564 169.012 248.415 169.234 248.415C169.42 248.415 169.605 248.564 169.605 248.787V251.051C169.605 251.237 169.42 251.422 169.234 251.422ZM169.234 245.372C169.012 245.372 168.863 245.223 168.863 245V242.736C168.863 242.551 169.012 242.365 169.234 242.365C169.42 242.365 169.605 242.551 169.605 242.736V245C169.605 245.223 169.42 245.372 169.234 245.372ZM169.234 239.358C169.012 239.358 168.863 239.173 168.863 238.987V236.723C168.863 236.5 169.012 236.352 169.234 236.352C169.42 236.352 169.605 236.5 169.605 236.723V238.987C169.605 239.173 169.42 239.358 169.234 239.358ZM169.234 233.308C169.012 233.308 168.863 233.122 168.863 232.937V230.672C168.863 230.45 169.012 230.301 169.234 230.301C169.42 230.301 169.605 230.45 169.605 230.672V232.937C169.605 233.122 169.42 233.308 169.234 233.308ZM169.234 227.257C169.012 227.257 168.863 227.109 168.863 226.886V224.622C168.863 224.436 169.012 224.251 169.234 224.251C169.42 224.251 169.605 224.436 169.605 224.622V226.886C169.605 227.109 169.42 227.257 169.234 227.257ZM169.234 221.244C169.012 221.244 168.863 221.058 168.863 220.873V218.608C168.863 218.386 169.012 218.237 169.234 218.237C169.42 218.237 169.605 218.386 169.605 218.608V220.873C169.605 221.058 169.42 221.244 169.234 221.244Z" fill="#455A64"/>
<path d="M246.686 280.676L241.678 283.609C242.086 284.722 242.383 285.91 242.383 286.912V376.927C242.383 377.892 242.123 378.486 241.715 378.709L246.686 375.851C247.094 375.628 247.317 374.997 247.317 374.069V284.017C247.317 282.866 247.132 281.753 246.686 280.676Z" fill="#263238"/>
<path d="M229.098 318.053C229.098 315.603 227.911 312.374 226.39 310.815C224.906 309.256 223.719 309.961 223.719 312.374C223.719 314.824 224.906 318.053 226.39 319.612C227.911 321.171 229.098 320.466 229.098 318.053Z" fill="#FAFAFA"/>
<path d="M298.289 285.278L310.792 292.517L298.289 299.718V285.278Z" fill="#37474F"/>
<path d="M307.787 294.259L310.607 292.626C311.497 292.106 311.942 291.438 311.942 290.77C311.942 290.102 311.497 289.434 310.607 288.914L298.289 281.787V285.276L306.896 290.25C307.305 290.473 307.305 291.067 306.896 291.29L304.782 292.515L307.787 294.259Z" fill="#455A64"/>
<path d="M290.067 300.978C286.542 303.02 283.648 307.808 283.648 311.669C283.648 313.525 284.316 314.824 285.429 315.418C286.579 316.086 288.472 317.2 288.472 317.2L307.579 304.802C308.469 304.282 308.914 303.614 308.914 302.946V289.026C308.914 289.694 308.469 290.362 307.579 290.882L290.067 300.978Z" fill="#455A64"/>
<path d="M293.19 302.724C289.628 304.766 286.771 309.554 286.771 313.377C286.771 317.238 289.628 318.685 293.19 316.644L310.665 306.547C311.555 306.028 312 305.359 312 304.691V290.771C312 291.44 311.555 292.108 310.665 292.627L293.19 302.724Z" fill="#37474F"/>
<path d="M294.191 304.806C296.231 303.618 297.901 304.583 297.901 306.922C297.864 309.298 296.231 312.156 294.191 313.344C292.15 314.531 290.48 313.566 290.48 311.191C290.48 308.852 292.15 305.994 294.191 304.806Z" fill="#FAFAFA"/>
<path d="M244.832 277.633L171.149 200.387C170.407 199.608 169.925 198.754 169.628 197.9L167.105 204.211L239.898 280.491C240.714 281.432 241.332 282.471 241.753 283.609L246.761 280.677C246.353 279.6 245.76 278.598 244.832 277.633Z" fill="#455A64"/>
<path d="M229.182 124.733L235.095 113.576L230.364 99.8267V91.4307L244.952 99.8267V108.279L238.644 119.098C238.531 119.286 238.4 119.417 238.249 119.493L229.182 124.733Z" fill="#263238"/>
<path d="M189.357 21.7884C189.357 18.971 191.329 15.59 193.75 14.1813L197.299 12.1527C199.721 10.744 203.607 10.744 206.028 12.1527L274.965 51.7662C277.331 53.1749 279.302 56.5558 279.302 59.3169V119.385C279.302 122.203 277.331 125.583 274.965 126.936L271.361 129.021C268.995 130.429 265.053 130.429 262.631 129.021L235.71 113.581L229.458 124.4C229.064 125.076 228.05 124.964 227.768 124.231L221.179 105.129L193.75 89.4073C191.329 87.9986 189.357 84.6177 189.357 81.8002V21.7884Z" fill="#37474F"/>
<path d="M279.226 119.38C279.226 122.197 277.255 125.578 274.89 126.931L271.285 129.016C269.145 130.255 265.709 130.368 263.344 129.354C265.371 130.143 266.948 128.959 266.948 126.48V66.4118C266.948 65.0594 266.441 63.4817 265.653 62.1293L277.931 55.0293C278.719 56.3817 279.226 57.9595 279.226 59.3118V119.38Z" fill="#263238"/>
<path d="M189.553 20.5487C190.06 18.6892 191.749 18.0694 193.777 19.2527L262.657 58.8661C263.897 59.5423 264.967 60.7257 265.755 62.1344L278.033 55.0344C277.245 53.6257 276.175 52.4987 274.992 51.7662L206.055 12.1527C203.633 10.744 199.747 10.744 197.325 12.1527L193.777 14.2377C191.693 15.421 190.003 18.0694 189.553 20.5487Z" fill="#455A64"/>
<path d="M254.786 69.071L204.435 39.9385C203.421 39.375 202.633 39.8258 202.633 41.0091V75.8328C202.633 76.9598 203.421 78.3686 204.435 78.932L254.786 108.008C255.8 108.572 256.588 108.121 256.588 106.994V72.1702C256.588 71.0432 255.8 69.6344 254.786 69.071Z" fill="#16E01E"/>
<path fill-rule="evenodd" clip-rule="evenodd" d="M249.607 101.989C249.457 101.989 249.307 101.952 249.157 101.877L208.099 78.1536C207.817 77.9845 207.648 77.7028 207.648 77.421C207.648 75.956 206.86 74.5472 205.564 73.8147C205.339 73.6456 205.17 73.4202 205.17 73.0822V49.0211C205.17 48.683 205.339 48.4013 205.564 48.2886C205.846 48.1195 206.127 48.1195 206.409 48.2886C206.916 48.5703 207.535 48.5703 208.042 48.2886C208.606 47.9505 208.887 47.4433 208.887 46.8235C208.887 46.5417 209.056 46.26 209.338 46.1473C209.563 45.9782 209.901 45.9782 210.126 46.1473L251.241 69.8703C251.522 69.983 251.635 70.2647 251.635 70.6028C251.635 72.0679 252.48 73.4203 253.719 74.1528C254 74.3218 254.169 74.6036 254.169 74.8853V99.0027C254.169 99.2845 254 99.5662 253.719 99.7353C253.493 99.848 253.155 99.848 252.93 99.7353C252.367 99.3972 251.747 99.3972 251.241 99.7353C250.734 100.017 250.396 100.581 250.396 101.144C250.396 101.426 250.283 101.708 250.002 101.877C249.851 101.952 249.72 101.989 249.607 101.989ZM209.281 76.9139L248.988 99.848C249.269 99.2281 249.776 98.6647 250.396 98.2702C251.072 97.9321 251.804 97.7631 252.48 97.8758V75.3361C251.072 74.3782 250.17 72.8004 250.002 71.0536L210.295 48.1195C210.014 48.7957 209.563 49.3592 208.887 49.6973C208.268 50.0917 207.535 50.2044 206.803 50.1481V72.6314C208.211 73.6457 209.169 75.2234 209.281 76.9139Z" fill="#455A64"/>
<path fill-rule="evenodd" clip-rule="evenodd" d="M232.975 84.402C231.792 84.402 230.553 84.0639 229.202 83.275C224.921 80.7957 221.373 74.71 221.373 69.6949C221.373 67.1028 222.274 65.1306 223.964 64.1727C225.653 63.2148 227.794 63.3838 230.047 64.6798C234.383 67.1592 237.931 73.3012 237.931 78.26C237.931 80.9084 236.974 82.8806 235.284 83.8385C234.609 84.2142 233.839 84.402 232.975 84.402ZM226.329 65.187C225.766 65.187 225.259 65.3185 224.809 65.5814C223.682 66.2576 223.063 67.7227 223.063 69.6949C223.063 74.1465 226.16 79.6123 230.047 81.8663C231.792 82.8242 233.369 83.0496 234.496 82.3734C235.622 81.6973 236.242 80.2885 236.242 78.26C236.242 73.8084 233.088 68.3425 229.202 66.1449C228.188 65.5251 227.174 65.187 226.329 65.187Z" fill="#455A64"/>
<path d="M281.903 119.151L186.629 23.8303M281.903 23.8303L186.629 119.151" stroke="#FF7A00" stroke-width="22" stroke-linecap="round"/>
</svg>
