<svg width="372" height="400" viewBox="0 0 372 400" fill="none" xmlns="http://www.w3.org/2000/svg">
<path d="M157.152 106.7V178.123H137.158V106.7C137.158 79.5481 116.643 57.4459 91.4384 57.4459C66.234 57.4459 45.7188 79.5481 45.7188 106.7V178.123H25.7246V106.7C25.7246 67.8084 55.1623 36.1963 91.4384 36.1963C127.714 36.1963 157.152 67.8084 157.152 106.7Z" fill="#455A64"/>
<path d="M25.7246 125.261L45.7188 126.114V178.123H25.7246V125.261Z" fill="#263238"/>
<path d="M157.152 130.705V178.123H137.158V129.852L157.152 130.705Z" fill="#263238"/>
<path d="M182.878 304.571H0V137.46H182.878V304.571Z" fill="#16E01E"/>
<path opacity="0.1" d="M182.881 304.571H91.4414V137.46H182.881V304.571Z" fill="black"/>
<path d="M99.1873 227.115L106.807 263.711H74.3086L81.9936 227.115C77.4347 224.229 74.3086 219.113 74.3086 213.276C74.3086 204.16 81.6029 196.945 90.5905 196.945C99.513 196.945 106.807 204.16 106.807 213.276C106.807 219.113 103.746 224.229 99.1873 227.115Z" fill="#263238"/>
<path d="M212.499 279.32C212.499 279.32 177.069 308.178 177.004 308.178C170.231 313.687 164.369 318.606 161.569 321.492C161.526 321.492 161.504 321.492 161.504 321.492C160.462 322.607 159.811 323.328 159.811 323.721C159.811 323.721 159.811 323.743 159.811 323.787C160.006 326.935 201.948 383.01 204.097 384.453C206.181 385.962 210.48 379.994 210.61 376.518C210.675 372.976 204.162 344.315 204.162 344.315L239.331 315.13L212.499 279.32Z" fill="#C95F50"/>
<path d="M184.299 302.275C184.299 302.275 177.069 308.178 177.004 308.178C170.231 313.687 164.369 318.606 161.569 321.492C161.526 321.492 161.504 321.492 161.504 321.492C160.527 322.607 159.876 323.394 159.811 323.722C159.811 323.722 159.811 323.743 159.811 323.787C160.006 326.935 201.948 383.011 204.097 384.453C206.181 385.962 210.48 379.994 210.61 376.518C210.675 372.976 204.162 344.315 204.162 344.315L211.652 338.413L184.299 302.275Z" fill="#EBEBEB"/>
<path d="M204.095 384.453C201.946 383.011 160.004 326.935 159.808 323.787C159.678 322.607 167.428 315.982 177.002 308.243C177.132 308.156 177.241 308.069 177.328 307.981L204.811 343.856L204.16 344.315C204.16 344.315 210.673 372.976 210.608 376.518C210.478 379.994 206.179 385.962 204.095 384.453Z" fill="#16E01E"/>
<path d="M205.789 382.224C198.951 372.583 170.425 334.412 162.935 325.427C162.87 325.361 162.935 325.296 162.935 325.427C169.448 335.133 198.234 373.107 205.594 382.355C205.789 382.551 205.919 382.42 205.789 382.224Z" fill="#263238"/>
<path d="M206.311 347.398C204.227 343.2 200.254 339.069 195.5 338.216C195.304 338.15 195.304 338.413 195.435 338.544C199.342 341.364 202.599 344.184 205.855 347.791C206.115 347.988 206.506 347.726 206.311 347.398Z" fill="#263238"/>
<path d="M206.766 351.333C204.617 347.07 200.644 342.938 195.89 342.085C195.76 342.085 195.695 342.348 195.825 342.413C199.733 345.234 202.989 348.119 206.245 351.661C206.506 351.923 206.897 351.661 206.766 351.333Z" fill="#263238"/>
<path d="M207.158 355.202C205.074 351.005 201.101 346.873 196.346 346.021C196.151 346.021 196.086 346.283 196.216 346.348C200.124 349.169 203.38 351.989 206.637 355.596C206.897 355.793 207.288 355.53 207.158 355.202Z" fill="#263238"/>
<path d="M231.711 244.954C229.172 257.415 177.721 307.26 177.721 307.26L213.606 349.037C213.606 349.037 286.679 275.516 282.902 247.905C279.58 223.901 243.89 127.294 243.89 127.294H202.665C202.665 127.294 234.186 232.624 231.711 244.954Z" fill="#37474F"/>
<path d="M231.711 244.954C229.172 257.415 177.721 307.26 177.721 307.26L213.606 349.037C213.606 349.037 286.679 275.516 282.902 247.905C279.58 223.901 243.89 127.294 243.89 127.294H202.665C202.665 127.294 234.186 232.624 231.711 244.954Z" fill="#37474F"/>
<path d="M217.706 339.068C212.886 333.1 214.384 334.74 209.565 328.837C207.155 325.951 191.59 306.932 188.919 304.571C188.854 304.505 188.789 304.636 188.789 304.702C190.613 307.719 206.504 326.476 208.914 329.362C213.863 335.199 212.495 333.494 217.51 339.265C217.641 339.331 217.771 339.2 217.706 339.068Z" fill="#263238"/>
<path d="M236.853 238.854C236.202 235.706 235.551 232.624 234.9 229.476C233.554 223.136 232.142 216.818 230.666 210.522C227.67 197.995 224.479 185.534 220.962 173.204C217.445 160.808 213.733 148.412 209.5 136.214C208.935 134.727 208.393 133.219 207.872 131.688C207.806 131.623 207.676 131.623 207.676 131.754C211.388 143.953 215.231 156.151 218.683 168.35C222.135 180.615 225.326 192.879 228.322 205.209C229.885 211.374 231.252 217.605 232.62 223.835C233.315 226.896 233.988 229.957 234.639 233.017C235.29 236.1 236.137 239.314 236.332 242.462C236.528 245.61 235.551 248.364 233.923 250.988C232.36 253.546 230.601 255.972 228.843 258.333C225.326 263.121 191.785 300.767 190.678 301.816C190.613 301.882 190.743 302.013 190.808 301.947C195.302 297.881 223.763 266.859 227.345 262.072C229.168 259.667 230.927 257.262 232.62 254.857C234.248 252.562 235.811 250.266 236.723 247.577C237.635 244.692 237.374 241.74 236.853 238.854Z" fill="#263238"/>
<path d="M236.726 127.294L229.236 226.131C222.137 192.354 202.664 127.294 202.664 127.294H236.726Z" fill="#263238"/>
<path d="M219.078 330.805C219.078 330.805 228.001 374.419 227.935 374.485C228.066 383.207 228.326 390.946 228.847 394.882C228.847 394.925 228.847 394.947 228.847 394.947C229.043 396.456 229.238 397.439 229.564 397.702C232.234 399.472 301.92 400.522 304.395 399.735C306.805 399.013 304.786 391.93 302.116 389.7C299.446 387.47 272.939 375.009 272.939 375.009L263.625 331.461L219.078 330.805Z" fill="#C95F50"/>
<path d="M304.397 399.735C301.922 400.522 232.236 399.473 229.566 397.702C229.305 397.439 229.045 396.456 228.849 394.947C228.849 394.947 228.849 394.925 228.849 394.882C228.328 390.946 228.068 383.273 227.937 374.485C227.937 374.419 226.439 366.877 226.439 366.877H271.182L272.941 375.009C272.941 375.009 299.448 387.47 302.118 389.7C304.788 391.93 306.807 399.013 304.397 399.735Z" fill="#EBEBEB"/>
<path d="M304.391 399.735C301.916 400.522 232.229 399.473 229.559 397.702C228.582 397.111 228.126 386.815 227.996 374.485C227.996 374.353 227.996 374.222 227.996 374.091L272.934 374.288V375.009C272.934 375.009 299.441 387.47 302.111 389.7C304.782 391.93 306.8 399.013 304.391 399.735Z" fill="#16E01E"/>
<path d="M303.606 397.046C291.883 396.587 244.47 395.734 232.813 396.193C232.682 396.193 232.682 396.259 232.813 396.259C244.405 396.98 291.883 397.374 303.606 397.243C303.867 397.243 303.867 397.046 303.606 397.046Z" fill="#263238"/>
<path d="M276.71 375.206C272.086 374.288 266.42 374.944 262.838 378.157C262.708 378.289 262.903 378.485 263.033 378.485C267.592 377.108 271.891 376.19 276.645 375.796C276.971 375.796 277.036 375.272 276.71 375.206Z" fill="#263238"/>
<path d="M279.965 377.305C275.406 376.387 269.74 376.977 266.158 380.256C266.028 380.387 266.158 380.584 266.353 380.518C270.912 379.141 275.211 378.289 279.965 377.895C280.291 377.895 280.356 377.37 279.965 377.305Z" fill="#263238"/>
<path d="M283.286 379.403C278.662 378.42 272.996 379.075 269.414 382.355C269.284 382.486 269.479 382.683 269.609 382.617C274.233 381.24 278.467 380.387 283.286 379.994C283.612 379.928 283.612 379.469 283.286 379.403Z" fill="#263238"/>
<path d="M239.917 127.294C239.852 128.212 237.572 136.148 236.335 148.019C235.488 156.676 234.446 164.415 233.274 165.333C231.971 166.448 225.459 170.646 223.244 171.957C223.244 171.957 243.564 233.935 248.774 254.595C256.394 284.502 274.565 374.353 274.565 374.353H226.11C226.11 374.353 211.391 288.83 204.943 260.301C199.408 235.903 178.241 162.579 178.241 162.579C170.556 143.493 180 127.294 180 127.294H239.917Z" fill="#37474F"/>
<path d="M272.803 364.844C265.183 364.844 267.397 364.712 259.777 364.778C256.065 364.778 231.577 364.975 228.125 365.631C227.995 365.631 227.995 365.762 228.125 365.762C231.577 366.286 256.065 365.696 259.777 365.565C267.397 365.368 265.248 365.368 272.803 365.106C272.998 365.106 272.998 364.844 272.803 364.844Z" fill="#263238"/>
<path d="M236.725 162.907C231.97 165.399 227.542 168.613 223.308 171.892C223.178 172.023 223.308 172.285 223.504 172.154C228.063 169.334 232.687 166.514 237.05 163.431C237.376 163.169 237.05 162.71 236.725 162.907Z" fill="#263238"/>
<path d="M233.011 129.196C232.946 128.999 232.686 128.999 232.686 129.196C233.597 135.033 234.053 140.149 234.379 145.658C234.574 148.216 234.704 162.448 230.211 162.12C229.429 162.054 228.973 161.398 228.648 160.283C228.322 159.037 228.582 157.332 228.582 155.955C228.648 152.938 228.582 149.987 228.387 146.97C227.996 141.46 227.15 135.951 225.652 130.573C225.587 130.377 225.326 130.442 225.391 130.639C226.564 138.247 227.54 145.855 227.54 153.528C227.54 157.266 226.629 162.972 230.471 162.972C234.379 162.907 235.421 153.397 235.486 150.839C235.747 143.69 234.639 136.148 233.011 129.196Z" fill="#263238"/>
<path d="M230.343 162.448C230.148 163.497 229.952 164.481 229.822 165.53C229.757 166.317 229.627 167.17 229.822 167.957C229.822 168.088 230.017 168.088 230.082 167.957C230.538 167.235 230.603 166.317 230.734 165.465C230.929 164.546 231.19 163.628 231.32 162.644C231.45 162.054 230.538 161.857 230.343 162.448Z" fill="#263238"/>
<path d="M185.139 162.251C190.089 161.726 192.629 161.464 197.383 159.89C201.877 158.381 206.045 155.955 209.302 152.479C211.125 150.642 212.818 148.478 213.86 146.051C213.926 145.986 214.056 146.051 214.056 146.117C213.274 148.478 212.297 150.642 210.799 152.544C209.301 154.512 207.543 156.217 205.589 157.594C201.356 160.611 197.318 162.185 192.238 162.776C189.372 163.169 187.875 163.169 185.074 162.71C184.814 162.644 184.879 162.251 185.139 162.251Z" fill="#263238"/>
<path d="M220.502 337.954C220.372 336.861 220.22 335.746 220.046 334.609C219.72 332.444 219.395 330.28 219.069 328.116C218.418 323.787 217.636 319.459 216.855 315.13C215.357 306.538 213.598 297.947 211.775 289.355C210.733 284.567 209.495 279.78 208.193 274.992C208.128 274.664 207.672 274.861 207.737 275.123C208.518 279.517 209.235 283.911 210.147 288.24C211.015 292.569 211.883 296.919 212.752 301.292C214.445 309.818 216.008 318.475 217.701 327.066C218.157 329.493 218.613 331.92 219.069 334.346C219.33 335.527 219.59 336.729 219.851 337.954C220.111 339.134 220.437 340.315 220.632 341.561C220.697 341.626 220.827 341.626 220.827 341.495C220.632 340.315 220.632 339.134 220.502 337.954Z" fill="#263238"/>
<path d="M253.913 273.156C252.285 265.023 250.136 257.087 247.921 249.086C243.493 233.083 238.348 217.343 233.138 201.537C231.661 196.989 230.185 192.442 228.709 187.895C227.927 185.665 224.28 173.4 223.824 172.22C223.759 172.089 223.629 172.154 223.629 172.286C224.671 176.417 226.104 182.517 227.341 186.649C228.513 190.781 229.816 194.781 231.119 198.848C233.593 206.849 236.068 214.85 238.478 222.852C243.232 238.658 247.987 254.529 251.829 270.598C252.871 275.123 253.978 279.583 254.955 284.108C255.932 288.634 256.779 293.159 257.756 297.684C257.756 297.816 257.951 297.816 257.951 297.684C257.17 289.421 255.541 281.288 253.913 273.156Z" fill="#263238"/>
<path d="M223.761 315.524C221.091 300.045 217.899 284.698 214.382 269.417C210.822 254.07 206.849 238.833 202.464 223.704C198.1 208.554 193.281 193.601 188.071 178.713C185.661 171.695 183.121 164.612 181.493 157.332C179.93 150.118 179.083 142.313 180.777 135.033C181.167 133.197 181.753 131.36 182.405 129.589C182.47 129.524 182.274 129.393 182.274 129.524C176.413 143.166 180.19 158.119 184.619 171.63C187.094 179.041 189.634 186.321 192.044 193.732C194.518 201.34 196.885 208.969 199.143 216.621C203.636 231.771 207.739 247.053 211.452 262.465C215.186 277.812 218.507 293.268 221.416 308.834C224.347 324.443 226.822 340.118 229.297 355.793C229.622 357.826 229.883 359.925 230.143 361.958C230.143 362.089 230.339 362.089 230.339 361.958C228.45 346.414 226.431 330.936 223.761 315.524Z" fill="#263238"/>
<path d="M222.788 62.5615C228.52 83.4832 244.932 108.865 252.682 112.341C259.52 115.358 291.042 103.618 302.96 96.01C306.347 93.7801 292.345 74.1701 288.307 75.5474C274.956 80.0072 260.432 86.6313 259.325 86.2378C257.045 85.4507 242.913 68.0051 232.623 56.2654C221.095 43.0827 220.509 54.1666 222.788 62.5615Z" fill="#C95F50"/>
<path d="M325.493 78.2365C328.163 77.1216 348.809 76.4657 348.809 71.9403C348.809 67.415 322.562 68.6611 322.562 68.6611L325.493 78.2365Z" fill="#C95F50"/>
<path d="M285.895 78.7612C289.477 74.2358 292.668 69.3825 295.794 68.4643C298.008 67.874 321.389 68.8578 325.036 68.6611C328.683 68.4643 341.709 68.7922 341.969 72.0059C342.425 76.5313 326.99 76.5313 325.362 78.8268C319.696 86.8937 298.073 98.7647 298.073 98.7647L285.895 78.7612Z" fill="#C95F50"/>
<path d="M342.359 72.0714C342.164 71.2188 341.512 70.4974 340.861 70.0383C339.233 68.9233 337.149 68.7922 335.26 68.661C332.46 68.4642 329.529 68.3331 326.729 68.5954C326.663 68.5954 326.663 68.661 326.729 68.7266C328.878 68.7266 330.962 68.7266 333.111 68.9233C335 69.1201 337.084 69.2512 338.907 69.8415C339.754 70.1039 340.536 70.4974 341.122 71.1532C341.512 71.6123 341.773 72.2682 341.578 72.924C340.926 74.8916 337.084 75.4818 335.26 75.8754C332.916 76.4 330.506 76.8591 328.096 77.3838C328.031 77.3838 328.096 77.515 328.161 77.515C330.636 77.0559 333.176 76.8591 335.651 76.4C337.67 76.0065 339.819 75.613 341.382 74.3013C342.099 73.711 342.555 72.9896 342.359 72.0714Z" fill="#263238"/>
<path d="M284.987 76.0065L303.483 103.29C303.483 103.29 274.827 117.719 263.886 117.456C253.465 117.194 249.688 115.686 246.366 112.537C244.347 110.57 232.69 94.0424 223.246 66.6278C215.301 43.673 227.089 47.0179 237.509 59.807C242.784 66.1032 259.457 85.0573 260.304 84.9917C261.15 84.9261 284.987 76.0065 284.987 76.0065Z" fill="#16E01E"/>
<path d="M279.324 80.4007C282.059 84.467 284.729 88.5989 287.334 92.7307C288.637 94.7639 293.456 103.028 294.824 105.323C294.889 105.454 294.629 105.585 294.564 105.52C293.131 103.421 287.921 95.1574 286.683 93.1242C284.143 88.9268 281.603 84.7293 279.194 80.4663C279.128 80.4007 279.259 80.3351 279.324 80.4007Z" fill="#263238"/>
<path opacity="0.1" d="M269.423 116.735C267.339 117.26 265.45 117.522 263.887 117.456C253.467 117.194 249.689 115.686 246.368 112.537C244.349 110.57 232.691 94.108 223.248 66.6279C221.424 61.381 220.643 57.4459 220.643 54.7569C220.643 54.4946 220.643 54.2541 220.643 54.0355C220.686 53.7732 220.708 53.5327 220.708 53.3141C220.751 53.0955 220.795 52.8987 220.838 52.7238C221.033 51.74 221.424 51.0186 221.945 50.4939C228.393 59.2167 258.742 100.404 269.423 116.735Z" fill="black"/>
<path d="M337.351 64.7915V68.5954H267.209V64.7915H337.351Z" fill="#C7C7C7"/>
<path d="M337.349 64.7914V68.5953H294.756L297.621 64.7914H337.349Z" fill="#A6A6A6"/>
<path d="M300.682 68.5954H347.639L371.996 26.8176H325.104L300.682 68.5954Z" fill="#C7C7C7"/>
<path d="M334.611 47.6737C333.764 49.6412 334.35 51.6743 336.043 52.199C337.737 52.7893 339.756 51.6744 340.667 49.7724C341.514 47.8704 340.863 45.8373 339.235 45.247C337.541 44.6567 335.457 45.7717 334.611 47.6737Z" fill="white"/>
<path d="M175.513 141.723C175.643 141.854 248.912 141.329 249.563 140.608C250.475 139.493 233.151 59.7413 225.531 49.9691C223.903 47.8704 218.562 47.3457 214.069 47.936C212.831 48.1327 211.659 48.3951 210.617 48.723C210.573 48.723 210.53 48.723 210.486 48.723C209.444 49.1165 208.533 49.51 207.947 50.0347C195.507 60.266 185.282 95.6164 182.938 106.241C179.03 123.687 174.862 141.001 175.513 141.723Z" fill="#EBEBEB"/>
<path d="M209.703 48.8541C209.703 48.8541 214.457 81.7123 215.63 90.2384C216.737 98.6989 215.695 143.69 215.695 143.69L169.715 147.56C169.715 147.56 179.354 117.719 179.419 115.817C179.419 115.817 187.039 79.9415 194.919 65.1193C200.716 54.2321 209.703 48.8541 209.703 48.8541Z" fill="#16E01E"/>
<path d="M225.006 49.4445C225.006 49.4445 231.193 82.6961 231.779 85.3851C232.3 88.1397 240.246 142.116 240.246 142.116L251.773 142.379L245.521 117.719C245.521 117.719 232.17 54.5601 225.006 49.4445Z" fill="#16E01E"/>
<path d="M222.402 60.0692C218.95 60.4627 212.307 55.6094 210.484 50.4282C210.353 50.0347 211.396 46.6898 212.438 42.4924C213.089 40.0002 213.74 37.18 214.131 34.5566C214.261 34.0319 229.892 41.1151 229.892 41.1151C229.892 41.1151 227.417 46.3619 226.701 50.9529C226.657 51.3464 226.635 51.718 226.635 52.0678C226.635 52.1116 226.635 52.1771 226.635 52.2646C226.635 54.2977 226.179 59.6757 222.402 60.0692Z" fill="#C95F50"/>
<path d="M226.633 52.0679C226.633 52.1116 226.633 52.1772 226.633 52.2646C226.112 52.2209 225.548 52.1553 224.94 52.0679C215.366 50.2971 214.715 37.7703 214.715 34.6222C217.58 35.5404 229.89 41.1151 229.89 41.1151C229.89 41.1151 227.415 46.3619 226.698 50.9529C226.655 51.3464 226.633 51.7181 226.633 52.0679Z" fill="#263238"/>
<path d="M214.322 13.6349C211.847 19.2753 212.759 36.5898 216.471 40.8528C221.747 47.0834 231.516 48.8542 237.052 42.2301C242.392 35.7372 240.764 13.1758 236.53 9.17514C230.408 3.27248 218.034 5.30562 214.322 13.6349Z" fill="#C95F50"/>
<path d="M227.027 25.8995C226.962 25.8339 226.897 25.9651 226.897 26.0306C227.027 27.1456 226.962 28.5229 225.92 28.982C225.855 28.982 225.855 29.0476 225.92 29.0476C227.157 28.7852 227.288 26.9488 227.027 25.8995Z" fill="#263238"/>
<path d="M225.916 24.7189C224.028 24.6533 224.093 28.4572 225.786 28.5228C227.544 28.5228 227.479 24.7844 225.916 24.7189Z" fill="#263238"/>
<path d="M234.123 25.8338C234.123 25.7682 234.254 25.8994 234.254 25.965C234.188 27.0799 234.384 28.4572 235.426 28.8507V28.9163C234.123 28.7195 233.928 26.9487 234.123 25.8338Z" fill="#263238"/>
<path d="M235.166 24.5877C236.989 24.4566 237.185 28.1949 235.491 28.3917C233.798 28.5228 233.603 24.7189 235.166 24.5877Z" fill="#263238"/>
<path d="M224.42 23.0136C224.941 22.8824 225.332 22.6857 225.853 22.4889C226.374 22.2922 226.895 22.161 227.22 21.6363C227.416 21.374 227.351 20.9149 227.09 20.7181C226.504 20.1934 225.788 20.3246 225.071 20.5214C224.355 20.7837 223.899 21.1116 223.443 21.7675C223.052 22.4233 223.769 23.2103 224.42 23.0136Z" fill="#263238"/>
<path d="M236.603 21.4396C236.082 21.374 235.626 21.1773 235.105 21.0461C234.518 20.9149 234.063 20.8493 233.672 20.3902C233.411 20.1279 233.476 19.6688 233.672 19.4065C234.193 18.8818 234.909 18.8818 235.626 19.0129C236.407 19.2097 236.928 19.5376 237.384 20.1279C237.84 20.7182 237.254 21.5708 236.603 21.4396Z" fill="#263238"/>
<path d="M226.634 36.7209C226.895 36.9833 227.155 37.3112 227.611 37.3768C228.002 37.3768 228.458 37.2456 228.848 37.0489L228.914 37.1144C228.588 37.5735 227.937 37.8359 227.416 37.7703C226.895 37.7047 226.634 37.2456 226.504 36.7865C226.504 36.6554 226.569 36.6553 226.634 36.7209Z" fill="#263238"/>
<path d="M227.806 33.1793C228.458 34.163 229.434 34.7533 230.476 34.9501C230.911 35.0375 231.367 35.0375 231.844 34.9501C231.974 34.9501 232.083 34.9501 232.17 34.9501C232.213 34.9501 232.278 34.9282 232.365 34.8845C232.561 34.8845 232.626 34.7533 232.626 34.6221C232.626 34.5784 232.626 34.5347 232.626 34.491V34.4254C232.626 33.5072 232.495 32.1299 232.495 32.1299C232.821 32.2611 234.514 33.0481 234.514 32.5234C234.189 28.6539 233.928 24.3253 232.821 20.5213C232.821 20.3902 232.626 20.4557 232.626 20.5869C232.756 24.3253 233.472 27.998 233.668 31.802C233.147 31.6052 232.3 31.2117 231.779 31.2117C231.649 31.2773 232.04 33.8351 232.04 34.2942C232.04 34.2942 232.018 34.2942 231.974 34.2942C230.476 34.491 229.369 34.0974 227.871 33.1137C227.806 33.0481 227.741 33.1137 227.806 33.1793Z" fill="#263238"/>
<path d="M231.324 34.5567C231.324 34.5567 230.542 35.6061 229.5 35.9996C229.11 36.1308 228.654 36.1964 228.198 36.1308C227.286 35.8684 227.221 35.0158 227.416 34.2944C227.546 33.7041 227.807 33.1794 227.807 33.1794C227.807 33.1794 229.175 34.4256 231.324 34.5567Z" fill="#263238"/>
<path d="M229.5 35.9997C229.109 36.1308 228.654 36.1964 228.198 36.1308C227.286 35.8685 227.221 35.0159 227.416 34.2944C228.393 34.36 229.37 35.0159 229.5 35.9997Z" fill="#FF9BBC"/>
<path d="M212.893 28.5884C212.893 28.5884 208.724 18.2259 210.157 12.848C210.809 10.4213 214.391 9.30636 214.391 9.30636C214.391 9.30636 213.935 6.09268 217.061 3.99396C220.447 1.69847 227.351 3.46928 227.351 3.46928C227.351 3.46928 232.952 -2.43339 239.009 1.23938C245 4.97774 239.595 11.6018 239.595 11.6018C239.595 11.6018 241.418 15.4058 235.231 17.0454C229.174 18.7506 218.103 14.2908 218.103 14.2908C218.103 14.2908 218.103 20.3903 216.019 26.2929C215.237 28.4572 212.893 28.5884 212.893 28.5884Z" fill="#263238"/>
<path d="M228.46 3.73166C227.093 2.87905 225.595 2.41996 224.032 2.15762C222.664 1.89528 221.231 1.89527 219.863 2.09203C217.389 2.55113 215.044 3.994 214.262 6.48624C213.872 7.73235 214.002 9.04406 214.588 10.2246C214.588 10.2246 214.653 10.2246 214.653 10.159C213.481 8.06028 214.718 5.3057 216.477 3.994C218.561 2.48554 221.296 2.28878 223.706 2.55112C225.334 2.74788 226.897 3.27256 228.395 3.86283C228.46 3.86283 228.525 3.79725 228.46 3.73166Z" fill="#263238"/>
<path d="M243.11 5.17448C242.849 3.27251 241.482 1.82964 239.853 0.977037C237.965 -0.00674131 235.75 -0.203495 233.731 0.190016C231.647 0.649113 229.694 1.69847 228.13 3.07576C228.065 3.14135 228.13 3.20693 228.196 3.14135C231.061 0.649113 235.099 -0.334673 238.746 1.04262C240.374 1.69847 241.872 2.81342 242.393 4.58422C242.849 6.15827 242.393 8.06024 241.482 9.37194C240.309 11.0116 238.486 12.1265 236.662 12.8479C236.597 12.9135 236.662 12.9791 236.662 12.9135C238.421 12.3233 240.114 11.4707 241.417 10.0934C242.589 8.78167 243.305 6.94528 243.11 5.17448Z" fill="#263238"/>
<path d="M236.6 17.6357C233.865 18.2915 230.999 18.2259 228.264 17.7012C225.398 17.1766 222.598 16.2584 219.927 15.1434C218.364 14.4439 216.823 13.7224 215.303 12.9791C215.238 12.9791 215.238 13.0447 215.238 13.0447C217.909 14.6843 220.644 16.1928 223.509 17.1766C226.245 18.1604 229.045 18.685 231.976 18.4883C233.539 18.4008 235.081 18.1385 236.6 17.7012C236.665 17.6357 236.6 17.5701 236.6 17.6357Z" fill="#263238"/>
<path d="M216.861 28.1293C216.861 28.1293 213.605 22.2922 211 23.4072C208.395 24.4566 210.413 32.7203 213.214 34.1632C215.949 35.5404 217.317 32.9826 217.317 32.9826L216.861 28.1293Z" fill="#C95F50"/>
<path d="M211.651 25.7026C211.586 25.7026 211.586 25.7682 211.586 25.8338C213.54 26.8832 214.452 28.8507 214.973 30.8839C214.452 30.0968 213.67 29.5722 212.563 30.228C212.498 30.228 212.563 30.3592 212.628 30.2936C213.475 30.228 214.061 30.4248 214.582 31.1462C214.907 31.6709 215.103 32.3267 215.363 32.917C215.428 33.1138 215.754 33.0482 215.689 32.7858C216.015 30.1624 214.386 26.2929 211.651 25.7026Z" fill="#263238"/>
<path d="M200.458 56.462C182.027 77.3181 168.154 106.635 168.35 113.587C168.48 121.195 178.119 147.953 187.302 160.546C188.474 162.185 195.573 161.464 201.63 158.119C208.012 154.643 213.223 148.347 211.985 146.445C207.296 139.427 196.159 112.144 196.224 107.881C196.355 103.88 205.472 79.7448 208.924 65.7751C212.246 52.3957 209.054 46.7554 200.458 56.462Z" fill="#C95F50"/>
<path d="M176.093 158.513L210.415 141.592C210.415 141.592 196.933 111.226 196.868 107.947C196.868 104.733 205.791 79.0235 209.112 67.1525C212.499 55.3472 211.196 41.9678 196.477 59.9382C181.824 77.8429 168.994 104.536 167.561 111.619C166.128 118.702 176.093 158.513 176.093 158.513Z" fill="#16E01E"/>
<path d="M198.625 99.2893C199.363 97.0157 200.102 94.7639 200.84 92.534C201.665 90.0418 202.555 87.5496 203.51 85.0573C204.357 82.6307 205.399 80.2696 206.31 77.9086C206.375 77.7118 206.701 77.843 206.636 77.9741C205.529 81.1878 204.422 84.4015 203.38 87.6152C204.161 86.1723 204.986 84.7294 205.854 83.2865C205.92 83.1554 206.115 83.221 206.05 83.3521C205.073 85.1885 204.031 86.8937 203.054 88.6645C202.793 89.4515 202.533 90.2167 202.272 90.96C200.84 95.2886 199.407 99.6828 198.169 104.077C197.909 105.061 197.648 106.045 197.583 107.094C197.518 108.275 197.713 109.389 198.104 110.504C198.69 112.538 199.407 114.571 200.123 116.538C201.556 120.605 203.119 124.54 204.747 128.475C206.636 132.935 208.72 137.394 210.869 141.723C210.869 141.723 209.567 142.116 209.502 142.116L209.436 142.051C209.502 141.985 210.283 141.592 210.283 141.592C208.134 137.853 206.115 134.115 204.291 130.18C202.511 126.245 200.905 122.244 199.472 118.178C198.69 116.079 197.974 113.959 197.323 111.816C196.671 109.783 196.281 107.815 196.737 105.651C197.192 103.487 197.974 101.388 198.625 99.2893Z" fill="#263238"/>
<path d="M175.505 148.741C176.678 148.019 178.045 147.56 179.283 146.97C180.39 146.445 181.497 145.92 182.604 145.396C185.079 144.281 187.489 143.166 189.964 142.051C192.439 140.936 194.914 139.821 197.323 138.772C199.798 137.722 202.208 136.542 204.748 135.624C204.813 135.558 204.878 135.689 204.813 135.755C202.533 137.198 200.124 138.313 197.714 139.559C195.369 140.739 192.96 141.854 190.55 142.904C188.075 144.018 185.6 145.068 183.125 146.117C181.888 146.576 180.716 147.035 179.478 147.495C178.176 147.954 176.873 148.609 175.571 148.872C175.506 148.872 175.44 148.806 175.505 148.741Z" fill="#263238"/>
</svg>
