<svg width="70" height="70" viewBox="0 0 70 70" fill="none" xmlns="http://www.w3.org/2000/svg">
<path d="M65.4044 25.6471C65.0364 26.9086 64.5258 28.1251 63.88 29.2665L65.7198 31.5869C66.3205 32.3454 66.2529 33.4267 65.5771 34.11L62.4082 37.279C61.7248 37.9623 60.6435 38.0223 59.8851 37.4216L57.5797 35.5968C56.3953 36.279 55.1319 36.8136 53.8176 37.1888L53.4721 40.1549C53.3595 41.1161 52.5485 41.837 51.5873 41.837H47.1043C46.1431 41.837 45.3321 41.1161 45.2194 40.1549L44.889 37.2939C43.4773 36.9259 42.1256 36.3778 40.8565 35.6644L38.6263 37.4291C37.8678 38.0298 36.7865 37.9622 36.1032 37.2864L32.9342 34.1175C32.2509 33.4341 32.1908 32.3528 32.7916 31.5943L34.5262 29.3941C33.8053 28.1475 33.2421 26.8184 32.8666 25.4292L30.1933 25.1213C29.2321 25.0087 28.5113 24.1977 28.5113 23.2365V18.7535C28.5113 17.7923 29.2322 16.9813 30.1933 16.8686L32.8291 16.5608C33.1896 15.1866 33.7302 13.8724 34.421 12.6409L32.799 10.5909C32.1982 9.83243 32.2658 8.7511 32.9417 8.06775L36.1031 4.90634C36.7864 4.223 37.8678 4.16292 38.6262 4.76366L40.6162 6.34061C41.9078 5.58218 43.2895 5.00396 44.7388 4.61348L45.0391 2.03779C45.1518 1.0766 45.9628 0.355713 46.924 0.355713H51.407C52.3682 0.355713 53.1792 1.0766 53.2918 2.03779L53.5922 4.61348C55.079 5.01147 56.4983 5.61221 57.8199 6.40069L59.885 4.76366C60.6434 4.16292 61.7248 4.2305 62.4081 4.90634L65.577 8.07526C66.2604 8.75861 66.3204 9.83994 65.7197 10.5984L63.9926 12.7836C64.6834 14.0301 65.2091 15.3593 65.5545 16.741L68.3179 17.0564C69.2791 17.169 70 17.98 70 18.9412V23.4242C70 24.3854 69.2791 25.1964 68.3179 25.3091L65.4044 25.6471ZM49.1618 13.5196C45.0767 13.5196 41.7501 16.8462 41.7501 20.9312C41.7501 25.0163 45.0767 28.3429 49.1618 28.3429C53.2468 28.3429 56.5735 25.0163 56.5735 20.9312C56.5735 16.8462 53.2469 13.5196 49.1618 13.5196Z" fill="#B3E8C2"/>
<path d="M4.84198 26.7509L7.2074 24.7535C7.93573 24.1377 9.00963 24.1677 9.70041 24.821L11.007 26.0451C12.1108 25.5119 13.2823 25.1364 14.4913 24.9187L14.8591 23.1164C15.0469 22.1853 15.9104 21.5395 16.8568 21.6146L19.9431 21.8774C20.8892 21.96 21.6327 22.7335 21.6627 23.6871L21.7227 25.5194C22.9092 25.9474 24.0281 26.5332 25.0494 27.2691L26.6112 26.2328C27.4074 25.7071 28.4661 25.8573 29.0818 26.5857L31.0793 28.9662C31.6951 29.6946 31.6651 30.7684 31.0118 31.4592L29.6451 32.916C30.118 33.9811 30.456 35.1012 30.6513 36.2501L32.6037 36.6481C33.5349 36.8358 34.1807 37.6994 34.1056 38.6456L33.8428 41.7319C33.7602 42.6781 32.9867 43.4215 32.033 43.4516L29.9229 43.5191C29.5398 44.5253 29.0368 45.4791 28.4286 46.3726L29.6075 48.1523C30.1331 48.9483 29.9829 50.0071 29.2546 50.6229L26.8892 52.6203C26.1607 53.2361 25.0869 53.2061 24.396 52.5528L22.8491 51.1035C21.8353 51.5765 20.7691 51.9295 19.6727 52.1397L19.2446 54.2574C19.0569 55.1885 18.1933 55.8343 17.2472 55.7592L14.1609 55.4964C13.2147 55.4138 12.4713 54.6404 12.4412 53.6867L12.3736 51.614C11.2472 51.216 10.181 50.6754 9.19728 50.0071L7.4926 51.1335C6.69662 51.6592 5.63788 51.509 5.02205 50.7806L3.02458 48.4151C2.40889 47.6867 2.43893 46.6129 3.09216 45.9221L4.46643 44.4653C3.96324 43.399 3.59521 42.2726 3.3851 41.1161L1.50778 40.7331C0.576626 40.5454 -0.0691719 39.6818 0.00592041 38.7356L0.268745 35.6493C0.351349 34.7031 1.1248 33.9597 2.07848 33.9297L3.96331 33.8696C4.35262 32.7757 4.88003 31.736 5.53275 30.7758L4.50406 29.2288C3.96331 28.433 4.1135 27.3667 4.84198 26.7509ZM16.4737 44.5929C19.8078 44.8783 22.7516 42.3927 23.0294 39.0586C23.3148 35.7245 20.8291 32.7808 17.4951 32.503C14.161 32.2176 11.2172 34.7033 10.9394 38.0373C10.654 41.3715 13.1397 44.3151 16.4737 44.5929ZM54.6059 52.8983C55.5521 52.9959 56.2805 53.7918 56.288 54.7455L56.3106 56.6454C56.3256 57.5991 55.6197 58.4101 54.6735 58.5303L53.2768 58.7104C53.044 59.5591 52.7136 60.3701 52.2856 61.136L53.1867 62.2474C53.7874 62.9907 53.7424 64.0571 53.0741 64.7405L51.7449 66.0997C51.0766 66.783 50.0103 66.8581 49.2518 66.2724L48.133 65.4088C47.3445 65.8744 46.5109 66.2424 45.6399 66.4977L45.4897 67.9394C45.3921 68.8856 44.5961 69.614 43.6425 69.6215L41.7425 69.644C40.7889 69.6591 39.9779 68.9532 39.8577 68.007L39.685 66.6403C38.7387 66.4075 37.8376 66.0546 36.9816 65.589L35.9303 66.4376C35.1869 67.0383 34.1205 66.9933 33.4372 66.3249L32.078 64.9958C31.3947 64.3275 31.3196 63.2612 31.9052 62.5027L32.7089 61.4588C32.2133 60.6328 31.8302 59.7542 31.5674 58.8306L30.3208 58.7029C29.3747 58.6053 28.6463 57.8093 28.6388 56.8557L28.6163 54.9557C28.6012 54.0021 29.3071 53.191 30.2533 53.0709L31.4698 52.9132C31.7026 51.9971 32.048 51.111 32.4985 50.285L31.7401 49.3538C31.1393 48.6104 31.1844 47.5441 31.8527 46.8607L33.1818 45.5015C33.5034 45.1712 33.9355 44.971 34.3954 44.9392C34.8553 44.9073 35.3109 45.046 35.675 45.3288L36.5837 46.0272C37.437 45.5101 38.3565 45.1109 39.317 44.8407L39.4372 43.6618C39.5348 42.7155 40.3307 41.9872 41.2845 41.9797L43.1843 41.9572C44.138 41.9421 44.949 42.648 45.0692 43.5942L45.2194 44.7657C46.2109 45.0216 47.1632 45.4106 48.0503 45.9221L48.989 45.1561C49.7324 44.5554 50.7988 44.6005 51.4822 45.2687L52.8488 46.6055C53.1791 46.9271 53.3793 47.3591 53.4112 47.819C53.443 48.2789 53.3043 48.7344 53.0216 49.0985L52.2181 50.1348C52.6836 50.9609 53.0516 51.8394 53.2919 52.7631L54.6059 52.8983ZM42.3433 50.7505C39.6174 50.7806 37.4323 53.0259 37.4622 55.7518C37.4923 58.4777 39.7376 60.6628 42.4635 60.6328C45.1894 60.6028 47.3745 58.3575 47.3445 55.6316C47.3144 52.9058 45.0692 50.7206 42.3433 50.7505Z" fill="#B3E8C2"/>
</svg>
